<?xml version="1.0" encoding="utf-8"?>
<!-- Generator: Adobe Illustrator 23.0.5, SVG Export Plug-In . SVG Version: 6.00 Build 0)  -->
<svg version="1.1" id="Layer_1" xmlns="http://www.w3.org/2000/svg" xmlns:xlink="http://www.w3.org/1999/xlink" x="0px" y="0px"
	 viewBox="0 0 128 128" style="enable-background:new 0 0 128 128;" xml:space="preserve">
<style type="text/css">
	.st0{fill:#245246;stroke:#84A296;stroke-width:1.5;stroke-miterlimit:10;}
	.st1{fill:#245246;stroke:#84A296;stroke-miterlimit:10;}
</style>
<g>
	<polygon class="st0" points="90.18,90.3 101.8,46.14 3.57,46.14 15.2,84.48 	"/>
	<path class="st0" d="M127.94,24.61c-0.23-0.93-1.18-1.5-2.11-1.27l-13.52,2.8c-1.27,0.31-2.26,1.29-2.6,2.55l-19.56,71.72
		c-0.42,1.57-1.85,2.66-3.47,2.66H17.52c-0.97,0-1.75,0.78-1.75,1.75c0,0.97,0.78,1.75,1.75,1.75h71.82c1.62,0,3.05-1.09,3.48-2.66
		l19.71-72.33c0.34-1.26,1.34-2.24,2.6-2.55l11.54-2.3C127.61,26.49,128.17,25.55,127.94,24.61z"/>
	<ellipse class="st0" cx="17.88" cy="115.87" rx="7.56" ry="7.56"/>
	<ellipse class="st0" cx="89.01" cy="115.87" rx="7.56" ry="7.56"/>
	<path class="st1" d="M0.88,4.34C15.5,7.58,34.76,14.2,39,33.31l-4.34,0.96l7.66,6.59l3.2-8.99l-4.34,0.96
		C36.67,12.49,16.59,5.54,1.36,2.17c-0.6-0.13-1.19,0.26-1.32,0.86C-0.1,3.62,0.28,4.21,0.88,4.34z"/>
</g>
</svg>
