<?xml version="1.0" encoding="utf-8"?>
<!-- Generator: Adobe Illustrator 23.0.5, SVG Export Plug-In . SVG Version: 6.00 Build 0)  -->
<svg version="1.1" id="Layer_1" xmlns="http://www.w3.org/2000/svg" xmlns:xlink="http://www.w3.org/1999/xlink" x="0px" y="0px"
	 viewBox="0 0 128 128" style="enable-background:new 0 0 128 128;" xml:space="preserve">
<style type="text/css">
	.st0{fill:#245246;stroke:#84A296;stroke-miterlimit:10;}
</style>
<rect x="65.27" y="30" class="st0" width="6.58" height="59.19"/>
<g>
	<path class="st0" d="M114.86,27.92c0.52-1.76,1.15-3.25,1.89-4.47s1.69-2.6,2.85-4.15c0.87-1.15,1.55-2.11,2.04-2.88
		c0.49-0.78,0.9-1.62,1.22-2.54s0.48-1.91,0.48-2.97v-0.03c0-2.34-0.58-4.14-1.74-5.42c-1.16-1.28-2.78-1.92-4.88-1.92
		c-2.19,0-3.9,0.76-5.12,2.28s-1.84,3.66-1.86,6.42v0.03h-4.44v-0.03c0.08-2.66,0.58-4.93,1.51-6.81c0.93-1.88,2.22-3.32,3.9-4.3
		c1.67-0.99,3.65-1.48,5.95-1.48c2.4,0,4.45,0.44,6.16,1.33s3.01,2.17,3.91,3.85s1.34,3.71,1.34,6.08v0.03c0,1.51-0.2,2.87-0.6,4.08
		s-0.9,2.25-1.49,3.14c-0.59,0.89-1.4,1.97-2.43,3.26c-1.13,1.41-2.03,2.63-2.7,3.67c-0.67,1.04-1.25,2.3-1.72,3.77
		c-0.47,1.48-0.71,3.18-0.71,5.09h-4.35C114.08,31.69,114.34,29.68,114.86,27.92z M113.8,39.05h4.95V44h-4.95V39.05z"/>
</g>
<path class="st0" d="M89.18,81.3V60.91L59.91,81.3V60.25L29.71,81.3V60.25L-0.5,81.3v34.2h120.36V81.3V59.92L89.18,81.3z
	 M38.5,110.5h-35v-20h35V110.5z M77.5,110.5h-35v-20h35V110.5z M116.5,110.5h-35v-20h35V110.5z"/>
</svg>
