<?xml version="1.0" encoding="utf-8"?>
<!-- Generator: Adobe Illustrator 23.0.5, SVG Export Plug-In . SVG Version: 6.00 Build 0)  -->
<svg version="1.1" id="Layer_1" xmlns="http://www.w3.org/2000/svg" xmlns:xlink="http://www.w3.org/1999/xlink" x="0px" y="0px"
	 viewBox="0 0 128 128" style="enable-background:new 0 0 128 128;" xml:space="preserve">
<style type="text/css">
	.st0{fill:#84A296;}
	.st1{fill:#245246;}
	.st2{fill:#245246;stroke:#84A296;stroke-miterlimit:10;}
	.st3{fill:#245246;stroke:#84A296;stroke-width:0.5;stroke-miterlimit:10;}
	.st4{fill:#FFFFFF;}
</style>
<polygon class="st0" points="18,7 1,24 1,70 46,70 64,52 64,7 "/>
<path class="st1" d="M17.94,6L0,23.6v46.93h46.93v-0.34l17.6-17.6V6.89v-0.3V6H17.94z M18.43,7.17h44.1l-4.95,4.95h-44.1L18.43,7.17
	z M9.96,15.65h44.1L46.1,23.6H2L9.96,15.65z M45.76,69.35H1.17V24.77h44.58V69.35z M63.35,52.1L46.93,68.52v-44.1l7.87-7.84v18.74
	l0.89-0.42l0.99-1.75l0.81-0.34l0.55-1.31l0.29,0.29V13.08l5.04-5.02V52.1z"/>
<path class="st2" d="M128,22.47l-4.84-8.83l-2.29,4.09c-19.19-10.69-38.72-6.79-52.05,2.85c-0.53,0.38-0.63,1.12-0.25,1.64
	c0.37,0.52,1.1,0.63,1.63,0.25c12.8-9.25,31.51-12.74,49.53-2.69l-2.28,4.09L128,22.47z"/>
<g>
	<path class="st3" d="M115.18,84.18l-0.03,0.03l-0.03-0.02c-0.01,0.02-1.09,2.16-3.38,4.09c-2.11,1.78-5.7,3.75-10.84,3.02
		c-0.9-0.13-1.8-0.19-2.69-0.19c-4.22,0-8.23,1.3-11.05,2.51c-3.7,1.59-6.22,3.37-6.25,3.39l0.02,0.03l-0.03,0.03l12.84,12.84
		l0.03-0.03l0.02,0.03c0.03-0.02,2.53-1.8,6.23-3.38c3.41-1.46,8.56-3.05,13.71-2.32c5.17,0.73,8.78-1.24,10.9-3.04
		c2.3-1.94,3.38-4.09,3.4-4.11l0.01-0.02L115.18,84.18z"/>
	<g>
		<path class="st4" d="M94.8,108.06l-0.38-0.38c-0.22,0.22-0.52,0.37-0.75,0.41l-0.16-0.35c0.23-0.05,0.5-0.17,0.71-0.38
			c0.27-0.27,0.3-0.61,0.08-0.82c-0.21-0.21-0.49-0.19-0.88-0.02c-0.54,0.23-0.95,0.3-1.28-0.03c-0.31-0.32-0.33-0.78-0.04-1.18
			l-0.38-0.38l0.24-0.23l0.37,0.37c0.24-0.22,0.45-0.31,0.63-0.36l0.16,0.35c-0.13,0.03-0.36,0.11-0.61,0.35
			c-0.29,0.29-0.23,0.58-0.08,0.73c0.2,0.2,0.44,0.16,0.9-0.04c0.55-0.23,0.94-0.23,1.28,0.11c0.3,0.3,0.37,0.79,0.04,1.24l0.39,0.4
			L94.8,108.06z"/>
	</g>
	<g>
		<path class="st4" d="M114.77,86.17l0.38,0.38c0.22-0.22,0.52-0.37,0.75-0.41l0.16,0.35c-0.23,0.05-0.5,0.17-0.71,0.38
			c-0.27,0.27-0.3,0.61-0.08,0.82c0.21,0.21,0.49,0.19,0.88,0.02c0.54-0.23,0.95-0.3,1.28,0.03c0.31,0.32,0.33,0.78,0.04,1.18
			l0.38,0.38l-0.24,0.23l-0.37-0.37c-0.24,0.22-0.45,0.31-0.63,0.36l-0.16-0.35c0.13-0.03,0.36-0.11,0.61-0.35
			c0.29-0.29,0.23-0.58,0.08-0.73c-0.2-0.2-0.44-0.16-0.9,0.04c-0.55,0.23-0.94,0.23-1.28-0.11c-0.3-0.3-0.37-0.79-0.04-1.24
			l-0.39-0.4L114.77,86.17z"/>
	</g>
</g>
<g>
	<path class="st3" d="M115.18,82.75l-0.03,0.03l-0.03-0.02c-0.01,0.02-1.09,2.16-3.38,4.09c-2.11,1.78-5.7,3.75-10.84,3.02
		c-0.9-0.13-1.8-0.19-2.69-0.19c-4.22,0-8.23,1.3-11.05,2.51c-3.7,1.59-6.22,3.37-6.25,3.39l0.02,0.03l-0.03,0.03l12.84,12.84
		l0.03-0.03l0.02,0.03c0.03-0.02,2.53-1.8,6.23-3.38c3.41-1.46,8.56-3.05,13.71-2.32c5.17,0.73,8.78-1.24,10.9-3.04
		c2.3-1.94,3.38-4.09,3.4-4.11l0.01-0.02L115.18,82.75z"/>
	<g>
		<path class="st4" d="M94.8,106.63l-0.38-0.38c-0.22,0.22-0.52,0.37-0.75,0.41l-0.16-0.35c0.23-0.05,0.5-0.17,0.71-0.38
			c0.27-0.27,0.3-0.61,0.08-0.82c-0.21-0.21-0.49-0.19-0.88-0.02c-0.54,0.23-0.95,0.3-1.28-0.03c-0.31-0.32-0.33-0.78-0.04-1.18
			l-0.38-0.38l0.24-0.23l0.37,0.37c0.24-0.22,0.45-0.31,0.63-0.36l0.16,0.35c-0.13,0.03-0.36,0.11-0.61,0.35
			c-0.29,0.29-0.23,0.58-0.08,0.73c0.2,0.2,0.44,0.16,0.9-0.04c0.55-0.23,0.94-0.23,1.28,0.11c0.3,0.3,0.37,0.79,0.04,1.24l0.39,0.4
			L94.8,106.63z"/>
	</g>
	<g>
		<path class="st4" d="M114.77,84.74l0.38,0.38c0.22-0.22,0.52-0.37,0.75-0.41l0.16,0.35c-0.23,0.05-0.5,0.17-0.71,0.38
			c-0.27,0.27-0.3,0.61-0.08,0.82c0.21,0.21,0.49,0.19,0.88,0.02c0.54-0.23,0.95-0.3,1.28,0.03c0.31,0.32,0.33,0.78,0.04,1.18
			l0.38,0.38l-0.24,0.23l-0.37-0.37c-0.24,0.22-0.45,0.31-0.63,0.36l-0.16-0.35c0.13-0.03,0.36-0.11,0.61-0.35
			c0.29-0.29,0.23-0.58,0.08-0.73c-0.2-0.2-0.44-0.16-0.9,0.04c-0.55,0.23-0.94,0.23-1.28-0.11c-0.3-0.3-0.37-0.79-0.04-1.24
			l-0.39-0.4L114.77,84.74z"/>
	</g>
</g>
<g>
	<path class="st3" d="M115.18,81.32l-0.03,0.03l-0.03-0.02c-0.01,0.02-1.09,2.16-3.38,4.09c-2.11,1.78-5.7,3.75-10.84,3.02
		c-0.9-0.13-1.8-0.19-2.69-0.19c-4.22,0-8.23,1.3-11.05,2.51c-3.7,1.59-6.22,3.37-6.25,3.39l0.02,0.03l-0.03,0.03l12.84,12.84
		l0.03-0.03l0.02,0.03c0.03-0.02,2.53-1.8,6.23-3.38c3.41-1.46,8.56-3.05,13.71-2.32c5.17,0.73,8.78-1.24,10.9-3.04
		c2.3-1.94,3.38-4.09,3.4-4.11l0.01-0.02L115.18,81.32z"/>
	<g>
		<path class="st4" d="M94.8,105.2l-0.38-0.38c-0.22,0.22-0.52,0.37-0.75,0.41l-0.16-0.35c0.23-0.05,0.5-0.17,0.71-0.38
			c0.27-0.27,0.3-0.61,0.08-0.82c-0.21-0.21-0.49-0.19-0.88-0.02c-0.54,0.23-0.95,0.3-1.28-0.03c-0.31-0.32-0.33-0.78-0.04-1.18
			l-0.38-0.38l0.24-0.23l0.37,0.37c0.24-0.22,0.45-0.31,0.63-0.36l0.16,0.35c-0.13,0.03-0.36,0.11-0.61,0.35
			c-0.29,0.29-0.23,0.58-0.08,0.73c0.2,0.2,0.44,0.16,0.9-0.04c0.55-0.23,0.94-0.23,1.28,0.11c0.3,0.3,0.37,0.79,0.04,1.24l0.39,0.4
			L94.8,105.2z"/>
	</g>
	<g>
		<path class="st4" d="M114.77,83.31l0.38,0.38c0.22-0.22,0.52-0.37,0.75-0.41l0.16,0.35c-0.23,0.05-0.5,0.17-0.71,0.38
			c-0.27,0.27-0.3,0.61-0.08,0.82c0.21,0.21,0.49,0.19,0.88,0.02c0.54-0.23,0.95-0.3,1.28,0.03c0.31,0.32,0.33,0.78,0.04,1.18
			l0.38,0.38l-0.24,0.23l-0.37-0.37c-0.24,0.22-0.45,0.31-0.63,0.36l-0.16-0.35c0.13-0.03,0.36-0.11,0.61-0.35
			c0.29-0.29,0.23-0.58,0.08-0.73c-0.2-0.2-0.44-0.16-0.9,0.04c-0.55,0.23-0.94,0.23-1.28-0.11c-0.3-0.3-0.37-0.79-0.04-1.24
			l-0.39-0.4L114.77,83.31z"/>
	</g>
</g>
<g>
	<path class="st3" d="M115.18,79.9l-0.03,0.03l-0.03-0.02c-0.01,0.02-1.09,2.16-3.38,4.09c-2.11,1.78-5.7,3.75-10.84,3.02
		c-0.9-0.13-1.8-0.19-2.69-0.19c-4.22,0-8.23,1.3-11.05,2.51c-3.7,1.59-6.22,3.37-6.25,3.39l0.02,0.03l-0.03,0.03l12.84,12.84
		l0.03-0.03l0.02,0.03c0.03-0.02,2.53-1.8,6.23-3.38c3.41-1.46,8.56-3.05,13.71-2.32c5.17,0.73,8.78-1.24,10.9-3.04
		c2.3-1.94,3.38-4.09,3.4-4.11l0.01-0.02L115.18,79.9z"/>
	<g>
		<path class="st4" d="M94.8,103.78l-0.38-0.38c-0.22,0.22-0.52,0.37-0.75,0.41l-0.16-0.35c0.23-0.05,0.5-0.17,0.71-0.38
			c0.27-0.27,0.3-0.61,0.08-0.82c-0.21-0.21-0.49-0.19-0.88-0.02c-0.54,0.23-0.95,0.3-1.28-0.03c-0.31-0.32-0.33-0.78-0.04-1.18
			l-0.38-0.38l0.24-0.23l0.37,0.37c0.24-0.22,0.45-0.31,0.63-0.36l0.16,0.35c-0.13,0.03-0.36,0.11-0.61,0.35
			c-0.29,0.29-0.23,0.58-0.08,0.73c0.2,0.2,0.44,0.16,0.9-0.04c0.55-0.23,0.94-0.23,1.28,0.11c0.3,0.3,0.37,0.79,0.04,1.24l0.39,0.4
			L94.8,103.78z"/>
	</g>
	<g>
		<path class="st4" d="M114.77,81.89l0.38,0.38c0.22-0.22,0.52-0.37,0.75-0.41l0.16,0.35c-0.23,0.05-0.5,0.17-0.71,0.38
			c-0.27,0.27-0.3,0.61-0.08,0.82c0.21,0.21,0.49,0.19,0.88,0.02c0.54-0.23,0.95-0.3,1.28,0.03c0.31,0.32,0.33,0.78,0.04,1.18
			l0.38,0.38l-0.24,0.23l-0.37-0.37c-0.24,0.22-0.45,0.31-0.63,0.36l-0.16-0.35c0.13-0.03,0.36-0.11,0.61-0.35
			c0.29-0.29,0.23-0.58,0.08-0.73c-0.2-0.2-0.44-0.16-0.9,0.04c-0.55,0.23-0.94,0.23-1.28-0.11c-0.3-0.3-0.37-0.79-0.04-1.24
			l-0.39-0.4L114.77,81.89z"/>
	</g>
</g>
<g>
	<path class="st3" d="M115.18,78.47l-0.03,0.03l-0.03-0.02c-0.01,0.02-1.09,2.16-3.38,4.09c-2.11,1.78-5.7,3.75-10.84,3.02
		c-0.9-0.13-1.8-0.19-2.69-0.19c-4.22,0-8.23,1.3-11.05,2.51c-3.7,1.59-6.22,3.37-6.25,3.39l0.02,0.03l-0.03,0.03l12.84,12.84
		l0.03-0.03l0.02,0.03c0.03-0.02,2.53-1.8,6.23-3.38c3.41-1.46,8.56-3.05,13.71-2.32c5.17,0.73,8.78-1.24,10.9-3.04
		c2.3-1.94,3.38-4.09,3.4-4.11l0.01-0.02L115.18,78.47z"/>
	<g>
		<path class="st4" d="M94.8,102.35l-0.38-0.38c-0.22,0.22-0.52,0.37-0.75,0.41l-0.16-0.35c0.23-0.05,0.5-0.17,0.71-0.38
			c0.27-0.27,0.3-0.61,0.08-0.82c-0.21-0.21-0.49-0.19-0.88-0.02c-0.54,0.23-0.95,0.3-1.28-0.03c-0.31-0.32-0.33-0.78-0.04-1.18
			l-0.38-0.38l0.24-0.23l0.37,0.37c0.24-0.22,0.45-0.31,0.63-0.36l0.16,0.35c-0.13,0.03-0.36,0.11-0.61,0.35
			c-0.29,0.29-0.23,0.58-0.08,0.73c0.2,0.2,0.44,0.16,0.9-0.04c0.55-0.23,0.94-0.23,1.28,0.11c0.3,0.3,0.37,0.79,0.04,1.24
			l0.39,0.39L94.8,102.35z"/>
	</g>
	<g>
		<path class="st4" d="M114.77,80.46l0.38,0.38c0.22-0.22,0.52-0.37,0.75-0.41l0.16,0.35c-0.23,0.05-0.5,0.17-0.71,0.38
			c-0.27,0.27-0.3,0.61-0.08,0.82c0.21,0.21,0.49,0.19,0.88,0.02c0.54-0.23,0.95-0.3,1.28,0.03c0.31,0.32,0.33,0.78,0.04,1.18
			l0.38,0.38l-0.24,0.23l-0.37-0.37c-0.24,0.22-0.45,0.31-0.63,0.36l-0.16-0.35c0.13-0.03,0.36-0.11,0.61-0.35
			c0.29-0.29,0.23-0.58,0.08-0.73c-0.2-0.2-0.44-0.16-0.9,0.04c-0.55,0.23-0.94,0.23-1.28-0.11c-0.3-0.3-0.37-0.79-0.04-1.24
			l-0.39-0.39L114.77,80.46z"/>
	</g>
</g>
<g>
	<path class="st3" d="M115.18,77.05l-0.03,0.03l-0.03-0.02c-0.01,0.02-1.09,2.16-3.38,4.09c-2.11,1.78-5.7,3.75-10.84,3.02
		c-0.9-0.13-1.8-0.19-2.69-0.19c-4.22,0-8.23,1.3-11.05,2.51c-3.7,1.59-6.22,3.37-6.25,3.39l0.02,0.03l-0.03,0.03l12.84,12.84
		l0.03-0.03l0.02,0.03c0.03-0.02,2.53-1.8,6.23-3.38c3.41-1.46,8.56-3.05,13.71-2.32c5.17,0.73,8.78-1.24,10.9-3.04
		c2.3-1.94,3.38-4.09,3.4-4.11l0.01-0.02L115.18,77.05z"/>
	<g>
		<path class="st4" d="M94.8,100.93l-0.38-0.38c-0.22,0.22-0.52,0.37-0.75,0.41l-0.16-0.35c0.23-0.05,0.5-0.17,0.71-0.38
			c0.27-0.27,0.3-0.61,0.08-0.82c-0.21-0.21-0.49-0.19-0.88-0.02c-0.54,0.23-0.95,0.3-1.28-0.03c-0.31-0.32-0.33-0.78-0.04-1.18
			l-0.38-0.38l0.24-0.23l0.37,0.37c0.24-0.22,0.45-0.31,0.63-0.36l0.16,0.35c-0.13,0.03-0.36,0.11-0.61,0.35
			c-0.29,0.29-0.23,0.58-0.08,0.73c0.2,0.2,0.44,0.16,0.9-0.04c0.55-0.23,0.94-0.23,1.28,0.11c0.3,0.3,0.37,0.79,0.04,1.24l0.39,0.4
			L94.8,100.93z"/>
	</g>
	<g>
		<path class="st4" d="M114.77,79.04l0.38,0.38c0.22-0.22,0.52-0.37,0.75-0.41l0.16,0.35c-0.23,0.05-0.5,0.17-0.71,0.38
			c-0.27,0.27-0.3,0.61-0.08,0.82c0.21,0.21,0.49,0.19,0.88,0.02c0.54-0.23,0.95-0.3,1.28,0.03c0.31,0.32,0.33,0.78,0.04,1.18
			l0.38,0.38l-0.24,0.23l-0.37-0.37c-0.24,0.22-0.45,0.31-0.63,0.36l-0.16-0.35c0.13-0.03,0.36-0.11,0.61-0.35
			c0.29-0.29,0.23-0.58,0.08-0.73c-0.2-0.2-0.44-0.16-0.9,0.04c-0.55,0.23-0.94,0.23-1.28-0.11c-0.3-0.3-0.37-0.79-0.04-1.24
			l-0.39-0.4L114.77,79.04z"/>
	</g>
</g>
<path class="st2" d="M72.24,102.68c-0.45-0.63-1.34-0.77-1.98-0.31c-15.56,11.24-38.3,15.48-60.21,3.27l2.78-4.97L0,102.39
	l5.88,10.73l2.78-4.98c23.32,13,47.07,8.25,63.27-3.46C72.57,104.22,72.7,103.32,72.24,102.68z"/>
</svg>
