<?xml version="1.0" encoding="utf-8"?>
<!-- Generator: Adobe Illustrator 23.0.5, SVG Export Plug-In . SVG Version: 6.00 Build 0)  -->
<svg version="1.1" id="Layer_1" xmlns="http://www.w3.org/2000/svg" xmlns:xlink="http://www.w3.org/1999/xlink" x="0px" y="0px"
	 viewBox="0 0 128 128" style="enable-background:new 0 0 128 128;" xml:space="preserve">
<style type="text/css">
	.st0{fill:#245246;stroke:#84A296;stroke-width:1.5;stroke-miterlimit:10;}
</style>
<g>
	<polygon class="st0" points="89.1,84.06 101.05,38.63 0,38.63 11.97,78.08 	"/>
	<path class="st0" d="M127.94,16.49c-0.24-0.96-1.21-1.55-2.18-1.31l-13.91,2.88c-1.31,0.32-2.32,1.33-2.68,2.62L89.05,94.47
		c-0.44,1.61-1.9,2.74-3.57,2.74H14.35c-1,0-1.8,0.8-1.8,1.8s0.8,1.8,1.8,1.8h73.88c1.67,0,3.14-1.12,3.58-2.74l20.27-74.41
		c0.35-1.29,1.37-2.3,2.68-2.62l11.87-2.37C127.6,18.42,128.18,17.45,127.94,16.49z"/>
	<ellipse class="st0" cx="14.72" cy="110.37" rx="7.77" ry="7.77"/>
	<ellipse class="st0" cx="87.9" cy="110.36" rx="7.77" ry="7.77"/>
</g>
</svg>
