<?xml version="1.0" encoding="utf-8"?>
<!-- Generator: Adobe Illustrator 23.0.5, SVG Export Plug-In . SVG Version: 6.00 Build 0)  -->
<svg version="1.1" id="Layer_1" xmlns="http://www.w3.org/2000/svg" xmlns:xlink="http://www.w3.org/1999/xlink" x="0px" y="0px"
	 viewBox="0 0 128 128" style="enable-background:new 0 0 128 128;" xml:space="preserve">
<style type="text/css">
	.st0{fill:#84A296;stroke:#245246;stroke-width:1.5;stroke-miterlimit:10;}
</style>
<g>
	<polygon class="st0" points="89.1,84.1 101.1,38.6 0,38.6 12,78.1 	"/>
	<path class="st0" d="M127.9,16.5c-0.2-1-1.2-1.6-2.2-1.3l-13.9,2.9c-1.3,0.3-2.3,1.3-2.7,2.6L89.1,94.5c-0.4,1.6-1.9,2.7-3.6,2.7
		H14.4c-1,0-1.8,0.8-1.8,1.8s0.8,1.8,1.8,1.8h73.9c1.7,0,3.1-1.1,3.6-2.7l20.3-74.4c0.3-1.3,1.4-2.3,2.7-2.6l11.9-2.4
		C127.6,18.4,128.2,17.5,127.9,16.5z"/>
	<ellipse class="st0" cx="14.7" cy="110.4" rx="7.8" ry="7.8"/>
	<ellipse class="st0" cx="87.9" cy="110.4" rx="7.8" ry="7.8"/>
</g>
</svg>
