<?xml version="1.0" encoding="utf-8"?>
<!-- Generator: Adobe Illustrator 23.0.5, SVG Export Plug-In . SVG Version: 6.00 Build 0)  -->
<svg version="1.1" id="Layer_1" xmlns="http://www.w3.org/2000/svg" xmlns:xlink="http://www.w3.org/1999/xlink" x="0px" y="0px"
	 viewBox="0 0 256 256" style="enable-background:new 0 0 256 256;" xml:space="preserve">
<style type="text/css">
	.st0{fill:#0B0022;}
</style>
<path class="st0" d="M175.39,212.53c-63.14,0-114.33-51.19-114.33-114.33c0-38.11,18.66-71.84,47.33-92.61
	C46.9,13.97-0.5,66.66-0.5,130.45c0,69.62,56.44,126.05,126.05,126.05c45.06,0,84.58-23.67,106.87-59.23
	C215.63,206.96,196.16,212.53,175.39,212.53z"/>
<polygon class="st0" points="147.57,45.67 149.74,42.42 145.4,42.42 143.51,39.57 141.61,42.42 137.28,42.42 139.44,45.67 
	137.28,48.92 141.61,48.92 143.51,51.76 145.4,48.92 149.74,48.92 "/>
<polygon class="st0" points="182.05,69.9 183.45,67.8 180.64,67.8 179.42,65.96 178.19,67.8 175.39,67.8 176.79,69.9 175.39,72 
	178.19,72 179.42,73.84 180.64,72 183.45,72 "/>
<polygon class="st0" points="207.15,41.24 209.83,37.22 204.48,37.22 202.13,33.71 199.79,37.22 194.44,37.22 197.12,41.24 
	194.44,45.25 199.79,45.25 202.13,48.77 204.48,45.25 209.83,45.25 "/>
<polygon class="st0" points="175.42,6.09 177.58,2.84 173.25,2.84 171.35,0 169.46,2.84 165.13,2.84 167.29,6.09 165.13,9.34 
	169.46,9.34 171.35,12.19 173.25,9.34 177.58,9.34 "/>
<polygon class="st0" points="236.98,130.68 239.14,127.43 234.81,127.43 232.91,124.59 231.02,127.43 226.69,127.43 228.85,130.68 
	226.69,133.93 231.02,133.93 232.91,136.77 234.81,133.93 239.14,133.93 "/>
<polygon class="st0" points="169.55,113.09 171.72,109.84 167.39,109.84 165.49,107 163.6,109.84 159.26,109.84 161.43,113.09 
	159.26,116.34 163.6,116.34 165.49,119.18 167.39,116.34 171.72,116.34 "/>
<polygon class="st0" points="255.05,15.9 256.45,13.8 253.64,13.8 252.42,11.96 251.19,13.8 248.39,13.8 249.79,15.9 248.39,18 
	251.19,18 252.42,19.84 253.64,18 256.45,18 "/>
</svg>
