<?xml version="1.0" encoding="utf-8"?>
<!-- Generator: Adobe Illustrator 23.0.5, SVG Export Plug-In . SVG Version: 6.00 Build 0)  -->
<svg version="1.1" id="Layer_1" xmlns="http://www.w3.org/2000/svg" xmlns:xlink="http://www.w3.org/1999/xlink" x="0px" y="0px"
	 viewBox="0 0 128 128" style="enable-background:new 0 0 128 128;" xml:space="preserve">
<style type="text/css">
	.st0{fill:#245246;stroke:#84A296;stroke-width:2;stroke-miterlimit:10;}
	.st1{fill:#245246;stroke:#84A296;stroke-width:0.5;stroke-miterlimit:10;}
	.st2{fill:#84A296;}
</style>
<path class="st0" d="M126.15,117.22L72.88,63.95c4.79-6.59,7.62-14.69,7.62-23.45c0-22.06-17.94-40-40-40s-40,17.94-40,40
	s17.94,40,40,40c8.75,0,16.85-2.83,23.45-7.62l53.27,53.27c2.47,2.47,6.47,2.47,8.93,0C128.62,123.68,128.62,119.68,126.15,117.22z
	 M7.5,40.5c0-18.2,14.8-33,33-33s33,14.8,33,33s-14.8,33-33,33S7.5,58.7,7.5,40.5z"/>
<g>
	<path class="st1" d="M39.5,23v35c0,0.55,0.45,1,1,1l0,0c0.55,0,1-0.45,1-1V23c0-0.55-0.45-1-1-1l0,0C39.95,22,39.5,22.45,39.5,23z"
		/>
	<circle class="st1" cx="40.5" cy="34" r="4.5"/>
</g>
<g>
	<path class="st1" d="M54.25,23v35c0,0.55,0.45,1,1,1l0,0c0.55,0,1-0.45,1-1V23c0-0.55-0.45-1-1-1l0,0C54.7,22,54.25,22.45,54.25,23
		z"/>
	<circle class="st1" cx="55" cy="51" r="4.5"/>
</g>
<g>
	<path class="st2" d="M35.37,17.63L35.37,17.63c1.79-1.79,0.03-4.78-2.41-4.1c-9.39,2.63-16.8,10.04-19.43,19.43
		c-0.68,2.44,2.31,4.2,4.1,2.41l0,0c0.3-0.3,0.51-0.67,0.62-1.08c2.17-7.75,8.28-13.87,16.04-16.04
		C34.7,18.14,35.07,17.93,35.37,17.63z"/>
</g>
<path class="st1" d="M24.75,25.04V58c0,0.55,0.45,1,1,1s1-0.45,1-1V23.23C26.05,23.79,25.38,24.4,24.75,25.04z"/>
<circle class="st1" cx="26" cy="41" r="4.5"/>
</svg>
