<?xml version="1.0" encoding="utf-8"?>
<!-- Generator: Adobe Illustrator 23.0.5, SVG Export Plug-In . SVG Version: 6.00 Build 0)  -->
<svg version="1.1" id="Layer_1" xmlns="http://www.w3.org/2000/svg" xmlns:xlink="http://www.w3.org/1999/xlink" x="0px" y="0px"
	 viewBox="0 0 128 128" style="enable-background:new 0 0 128 128;" xml:space="preserve">
<style type="text/css">
	.st0{fill:#245246;stroke:#84A296;stroke-miterlimit:10;}
	.st1{fill:#245246;stroke:#84A296;stroke-width:0.5;stroke-miterlimit:10;}
</style>
<g>
	<path class="st0" d="M114.9,27.9c0.5-1.8,1.2-3.3,1.9-4.5s1.7-2.6,2.8-4.1c0.9-1.1,1.6-2.1,2-2.9c0.5-0.8,0.9-1.6,1.2-2.5
		s0.5-1.9,0.5-3v0c0-2.3-0.6-4.1-1.7-5.4c-1.2-1.3-2.8-1.9-4.9-1.9c-2.2,0-3.9,0.8-5.1,2.3s-1.8,3.7-1.9,6.4v0h-4.4v0
		c0.1-2.7,0.6-4.9,1.5-6.8s2.2-3.3,3.9-4.3c1.7-1,3.7-1.5,5.9-1.5c2.4,0,4.4,0.4,6.2,1.3s3,2.2,3.9,3.8s1.3,3.7,1.3,6.1v0
		c0,1.5-0.2,2.9-0.6,4.1s-0.9,2.2-1.5,3.1c-0.6,0.9-1.4,2-2.4,3.3c-1.1,1.4-2,2.6-2.7,3.7s-1.3,2.3-1.7,3.8
		c-0.5,1.5-0.7,3.2-0.7,5.1h-4.3C114.1,31.7,114.3,29.7,114.9,27.9z M113.8,39h4.9v5h-4.9V39z"/>
</g>
<g>
	<path class="st1" d="M25,41.5C25,41.5,25,41.5,25,41.5l-3.6,3.5c0,0,0,0,0,0V60h14.8l3.7-3.7V41.5H25z"/>
	<g>
		<path class="st1" d="M26.5,35v4.6c0,0.3,0.2,0.5,0.5,0.5l0,0c0.3,0,0.5-0.2,0.5-0.5V35c0-0.3-0.2-0.5-0.5-0.5l0,0
			C26.7,34.4,26.5,34.7,26.5,35z"/>
		<path class="st1" d="M31.5,35v4.6c0,0.3,0.2,0.5,0.5,0.5l0,0c0.3,0,0.5-0.2,0.5-0.5V35c0-0.3-0.2-0.5-0.5-0.5l0,0
			C31.8,34.4,31.5,34.7,31.5,35z"/>
		<path class="st1" d="M36.6,35v4.6c0,0.3,0.2,0.5,0.5,0.5l0,0c0.3,0,0.5-0.2,0.5-0.5V35c0-0.3-0.2-0.5-0.5-0.5l0,0
			C36.8,34.4,36.6,34.7,36.6,35z"/>
	</g>
	<g>
		<path class="st1" d="M23.7,62v4.6c0,0.3,0.2,0.5,0.5,0.5l0,0c0.3,0,0.5-0.2,0.5-0.5V62c0-0.3-0.2-0.5-0.5-0.5l0,0
			C23.9,61.5,23.7,61.7,23.7,62z"/>
		<path class="st1" d="M28.7,62v4.6c0,0.3,0.2,0.5,0.5,0.5l0,0c0.3,0,0.5-0.2,0.5-0.5V62c0-0.3-0.2-0.5-0.5-0.5l0,0
			C28.9,61.5,28.7,61.7,28.7,62z"/>
		<path class="st1" d="M33.7,62v4.6c0,0.3,0.2,0.5,0.5,0.5l0,0c0.3,0,0.5-0.2,0.5-0.5V62c0-0.3-0.2-0.5-0.5-0.5l0,0
			C34,61.5,33.7,61.7,33.7,62z"/>
	</g>
	<g>
		<path class="st1" d="M46.5,54.2h-4.6c-0.3,0-0.5-0.2-0.5-0.5l0,0c0-0.3,0.2-0.5,0.5-0.5h4.6c0.3,0,0.5,0.2,0.5,0.5l0,0
			C47,54,46.8,54.2,46.5,54.2z"/>
		<path class="st1" d="M46.5,49.2h-4.6c-0.3,0-0.5-0.2-0.5-0.5l0,0c0-0.3,0.2-0.5,0.5-0.5h4.6c0.3,0,0.5,0.2,0.5,0.5l0,0
			C47,48.9,46.8,49.2,46.5,49.2z"/>
		<path class="st1" d="M46.5,44.2h-4.6c-0.3,0-0.5-0.2-0.5-0.5l0,0c0-0.3,0.2-0.5,0.5-0.5h4.6c0.3,0,0.5,0.2,0.5,0.5l0,0
			C47,43.9,46.8,44.2,46.5,44.2z"/>
	</g>
	<g>
		<path class="st1" d="M19.4,57.8h-4.6c-0.3,0-0.5-0.2-0.5-0.5l0,0c0-0.3,0.2-0.5,0.5-0.5h4.6c0.3,0,0.5,0.2,0.5,0.5l0,0
			C20,57.5,19.7,57.8,19.4,57.8z"/>
		<path class="st1" d="M19.4,52.7h-4.6c-0.3,0-0.5-0.2-0.5-0.5l0,0c0-0.3,0.2-0.5,0.5-0.5h4.6c0.3,0,0.5,0.2,0.5,0.5l0,0
			C20,52.5,19.7,52.7,19.4,52.7z"/>
		<path class="st1" d="M19.4,47.7h-4.6c-0.3,0-0.5-0.2-0.5-0.5l0,0c0-0.3,0.2-0.5,0.5-0.5h4.6c0.3,0,0.5,0.2,0.5,0.5l0,0
			C20,47.5,19.7,47.7,19.4,47.7z"/>
	</g>
</g>
<g>
	<path class="st1" d="M71,41.5C71,41.5,71,41.5,71,41.5l-3.6,3.5c0,0,0,0,0,0V60h14.8l3.7-3.7V41.5H71z"/>
	<g>
		<path class="st1" d="M72.5,35v4.6c0,0.3,0.2,0.5,0.5,0.5l0,0c0.3,0,0.5-0.2,0.5-0.5V35c0-0.3-0.2-0.5-0.5-0.5l0,0
			C72.7,34.4,72.5,34.7,72.5,35z"/>
		<path class="st1" d="M77.5,35v4.6c0,0.3,0.2,0.5,0.5,0.5l0,0c0.3,0,0.5-0.2,0.5-0.5V35c0-0.3-0.2-0.5-0.5-0.5l0,0
			C77.8,34.4,77.5,34.7,77.5,35z"/>
		<path class="st1" d="M82.6,35v4.6c0,0.3,0.2,0.5,0.5,0.5l0,0c0.3,0,0.5-0.2,0.5-0.5V35c0-0.3-0.2-0.5-0.5-0.5l0,0
			C82.8,34.4,82.6,34.7,82.6,35z"/>
	</g>
	<g>
		<path class="st1" d="M69.7,62v4.6c0,0.3,0.2,0.5,0.5,0.5l0,0c0.3,0,0.5-0.2,0.5-0.5V62c0-0.3-0.2-0.5-0.5-0.5l0,0
			C69.9,61.5,69.7,61.7,69.7,62z"/>
		<path class="st1" d="M74.7,62v4.6c0,0.3,0.2,0.5,0.5,0.5l0,0c0.3,0,0.5-0.2,0.5-0.5V62c0-0.3-0.2-0.5-0.5-0.5l0,0
			C74.9,61.5,74.7,61.7,74.7,62z"/>
		<path class="st1" d="M79.7,62v4.6c0,0.3,0.2,0.5,0.5,0.5l0,0c0.3,0,0.5-0.2,0.5-0.5V62c0-0.3-0.2-0.5-0.5-0.5l0,0
			C79.9,61.5,79.7,61.7,79.7,62z"/>
	</g>
	<g>
		<path class="st1" d="M92.5,54.2h-4.6c-0.3,0-0.5-0.2-0.5-0.5l0,0c0-0.3,0.2-0.5,0.5-0.5h4.6c0.3,0,0.5,0.2,0.5,0.5l0,0
			C93,54,92.8,54.2,92.5,54.2z"/>
		<path class="st1" d="M92.5,49.2h-4.6c-0.3,0-0.5-0.2-0.5-0.5l0,0c0-0.3,0.2-0.5,0.5-0.5h4.6c0.3,0,0.5,0.2,0.5,0.5l0,0
			C93,48.9,92.8,49.2,92.5,49.2z"/>
		<path class="st1" d="M92.5,44.2h-4.6c-0.3,0-0.5-0.2-0.5-0.5l0,0c0-0.3,0.2-0.5,0.5-0.5h4.6c0.3,0,0.5,0.2,0.5,0.5l0,0
			C93,43.9,92.8,44.2,92.5,44.2z"/>
	</g>
	<g>
		<path class="st1" d="M65.4,57.8h-4.6c-0.3,0-0.5-0.2-0.5-0.5l0,0c0-0.3,0.2-0.5,0.5-0.5h4.6c0.3,0,0.5,0.2,0.5,0.5l0,0
			C66,57.5,65.7,57.8,65.4,57.8z"/>
		<path class="st1" d="M65.4,52.7h-4.6c-0.3,0-0.5-0.2-0.5-0.5l0,0c0-0.3,0.2-0.5,0.5-0.5h4.6c0.3,0,0.5,0.2,0.5,0.5l0,0
			C66,52.5,65.7,52.7,65.4,52.7z"/>
		<path class="st1" d="M65.4,47.7h-4.6c-0.3,0-0.5-0.2-0.5-0.5l0,0c0-0.3,0.2-0.5,0.5-0.5h4.6c0.3,0,0.5,0.2,0.5,0.5l0,0
			C66,47.5,65.7,47.7,65.4,47.7z"/>
	</g>
</g>
<g>
	<path class="st1" d="M25,83.5C25,83.5,25,83.5,25,83.5l-3.6,3.6c0,0,0,0,0,0V102h14.8l3.7-3.7V83.5H25z"/>
	<g>
		<path class="st1" d="M26.5,76.9v4.6c0,0.3,0.2,0.5,0.5,0.5l0,0c0.3,0,0.5-0.2,0.5-0.5v-4.6c0-0.3-0.2-0.5-0.5-0.5l0,0
			C26.7,76.4,26.5,76.7,26.5,76.9z"/>
		<path class="st1" d="M31.5,76.9v4.6c0,0.3,0.2,0.5,0.5,0.5l0,0c0.3,0,0.5-0.2,0.5-0.5v-4.6c0-0.3-0.2-0.5-0.5-0.5l0,0
			C31.8,76.4,31.5,76.7,31.5,76.9z"/>
		<path class="st1" d="M36.6,76.9v4.6c0,0.3,0.2,0.5,0.5,0.5l0,0c0.3,0,0.5-0.2,0.5-0.5v-4.6c0-0.3-0.2-0.5-0.5-0.5l0,0
			C36.8,76.4,36.6,76.7,36.6,76.9z"/>
	</g>
	<g>
		<path class="st1" d="M23.7,104v4.6c0,0.3,0.2,0.5,0.5,0.5l0,0c0.3,0,0.5-0.2,0.5-0.5V104c0-0.3-0.2-0.5-0.5-0.5l0,0
			C23.9,103.4,23.7,103.7,23.7,104z"/>
		<path class="st1" d="M28.7,104v4.6c0,0.3,0.2,0.5,0.5,0.5l0,0c0.3,0,0.5-0.2,0.5-0.5V104c0-0.3-0.2-0.5-0.5-0.5l0,0
			C28.9,103.4,28.7,103.7,28.7,104z"/>
		<path class="st1" d="M33.7,104v4.6c0,0.3,0.2,0.5,0.5,0.5l0,0c0.3,0,0.5-0.2,0.5-0.5V104c0-0.3-0.2-0.5-0.5-0.5l0,0
			C34,103.4,33.7,103.7,33.7,104z"/>
	</g>
	<g>
		<path class="st1" d="M46.5,96.2h-4.6c-0.3,0-0.5-0.2-0.5-0.5l0,0c0-0.3,0.2-0.5,0.5-0.5h4.6c0.3,0,0.5,0.2,0.5,0.5l0,0
			C47,96,46.8,96.2,46.5,96.2z"/>
		<path class="st1" d="M46.5,91.2h-4.6c-0.3,0-0.5-0.2-0.5-0.5l0,0c0-0.3,0.2-0.5,0.5-0.5h4.6c0.3,0,0.5,0.2,0.5,0.5l0,0
			C47,90.9,46.8,91.2,46.5,91.2z"/>
		<path class="st1" d="M46.5,86.2h-4.6c-0.3,0-0.5-0.2-0.5-0.5l0,0c0-0.3,0.2-0.5,0.5-0.5h4.6c0.3,0,0.5,0.2,0.5,0.5l0,0
			C47,85.9,46.8,86.2,46.5,86.2z"/>
	</g>
	<g>
		<path class="st1" d="M19.4,99.8h-4.6c-0.3,0-0.5-0.2-0.5-0.5l0,0c0-0.3,0.2-0.5,0.5-0.5h4.6c0.3,0,0.5,0.2,0.5,0.5l0,0
			C20,99.5,19.7,99.8,19.4,99.8z"/>
		<path class="st1" d="M19.4,94.7h-4.6c-0.3,0-0.5-0.2-0.5-0.5l0,0c0-0.3,0.2-0.5,0.5-0.5h4.6c0.3,0,0.5,0.2,0.5,0.5l0,0
			C20,94.5,19.7,94.7,19.4,94.7z"/>
		<path class="st1" d="M19.4,89.7h-4.6c-0.3,0-0.5-0.2-0.5-0.5l0,0c0-0.3,0.2-0.5,0.5-0.5h4.6c0.3,0,0.5,0.2,0.5,0.5l0,0
			C20,89.5,19.7,89.7,19.4,89.7z"/>
	</g>
</g>
<g>
	<path class="st1" d="M71,83.5C71,83.5,71,83.5,71,83.5l-3.6,3.6c0,0,0,0,0,0V102h14.8l3.7-3.7V83.5H71z"/>
	<g>
		<path class="st1" d="M72.5,76.9v4.6c0,0.3,0.2,0.5,0.5,0.5l0,0c0.3,0,0.5-0.2,0.5-0.5v-4.6c0-0.3-0.2-0.5-0.5-0.5l0,0
			C72.7,76.4,72.5,76.7,72.5,76.9z"/>
		<path class="st1" d="M77.5,76.9v4.6c0,0.3,0.2,0.5,0.5,0.5l0,0c0.3,0,0.5-0.2,0.5-0.5v-4.6c0-0.3-0.2-0.5-0.5-0.5l0,0
			C77.8,76.4,77.5,76.7,77.5,76.9z"/>
		<path class="st1" d="M82.6,76.9v4.6c0,0.3,0.2,0.5,0.5,0.5l0,0c0.3,0,0.5-0.2,0.5-0.5v-4.6c0-0.3-0.2-0.5-0.5-0.5l0,0
			C82.8,76.4,82.6,76.7,82.6,76.9z"/>
	</g>
	<g>
		<path class="st1" d="M69.7,104v4.6c0,0.3,0.2,0.5,0.5,0.5l0,0c0.3,0,0.5-0.2,0.5-0.5V104c0-0.3-0.2-0.5-0.5-0.5l0,0
			C69.9,103.4,69.7,103.7,69.7,104z"/>
		<path class="st1" d="M74.7,104v4.6c0,0.3,0.2,0.5,0.5,0.5l0,0c0.3,0,0.5-0.2,0.5-0.5V104c0-0.3-0.2-0.5-0.5-0.5l0,0
			C74.9,103.4,74.7,103.7,74.7,104z"/>
		<path class="st1" d="M79.7,104v4.6c0,0.3,0.2,0.5,0.5,0.5l0,0c0.3,0,0.5-0.2,0.5-0.5V104c0-0.3-0.2-0.5-0.5-0.5l0,0
			C79.9,103.4,79.7,103.7,79.7,104z"/>
	</g>
	<g>
		<path class="st1" d="M92.5,96.2h-4.6c-0.3,0-0.5-0.2-0.5-0.5l0,0c0-0.3,0.2-0.5,0.5-0.5h4.6c0.3,0,0.5,0.2,0.5,0.5l0,0
			C93,96,92.8,96.2,92.5,96.2z"/>
		<path class="st1" d="M92.5,91.2h-4.6c-0.3,0-0.5-0.2-0.5-0.5l0,0c0-0.3,0.2-0.5,0.5-0.5h4.6c0.3,0,0.5,0.2,0.5,0.5l0,0
			C93,90.9,92.8,91.2,92.5,91.2z"/>
		<path class="st1" d="M92.5,86.2h-4.6c-0.3,0-0.5-0.2-0.5-0.5l0,0c0-0.3,0.2-0.5,0.5-0.5h4.6c0.3,0,0.5,0.2,0.5,0.5l0,0
			C93,85.9,92.8,86.2,92.5,86.2z"/>
	</g>
	<g>
		<path class="st1" d="M65.4,99.8h-4.6c-0.3,0-0.5-0.2-0.5-0.5l0,0c0-0.3,0.2-0.5,0.5-0.5h4.6c0.3,0,0.5,0.2,0.5,0.5l0,0
			C66,99.5,65.7,99.8,65.4,99.8z"/>
		<path class="st1" d="M65.4,94.7h-4.6c-0.3,0-0.5-0.2-0.5-0.5l0,0c0-0.3,0.2-0.5,0.5-0.5h4.6c0.3,0,0.5,0.2,0.5,0.5l0,0
			C66,94.5,65.7,94.7,65.4,94.7z"/>
		<path class="st1" d="M65.4,89.7h-4.6c-0.3,0-0.5-0.2-0.5-0.5l0,0c0-0.3,0.2-0.5,0.5-0.5h4.6c0.3,0,0.5,0.2,0.5,0.5l0,0
			C66,89.5,65.7,89.7,65.4,89.7z"/>
	</g>
</g>
<path class="st1" d="M99.3,71H55.8V27.5c0-0.4-0.3-0.8-0.8-0.8s-0.8,0.3-0.8,0.8V71H10.8c-0.4,0-0.8,0.3-0.8,0.8s0.3,0.8,0.8,0.8
	h43.5V116c0,0.4,0.3,0.8,0.8,0.8s0.8-0.3,0.8-0.8V72.5h43.5c0.4,0,0.8-0.3,0.8-0.8S99.7,71,99.3,71z"/>
</svg>
