<?xml version="1.0" encoding="utf-8"?>
<!-- Generator: Adobe Illustrator 23.0.5, SVG Export Plug-In . SVG Version: 6.00 Build 0)  -->
<svg version="1.1" id="Layer_1" xmlns="http://www.w3.org/2000/svg" xmlns:xlink="http://www.w3.org/1999/xlink" x="0px" y="0px"
	 viewBox="0 0 128 128" style="enable-background:new 0 0 128 128;" xml:space="preserve">
<style type="text/css">
	.st0{fill:#245246;stroke:#84A296;stroke-width:2;stroke-miterlimit:10;}
</style>
<path class="st0" d="M64,1C29.26,1,1,29.26,1,64s28.26,63,63,63s63-28.26,63-63S98.74,1,64,1z M64,119.59
	C33.35,119.59,8.41,94.65,8.41,64S33.35,8.41,64,8.41S119.59,33.35,119.59,64S94.65,119.59,64,119.59z"/>
<g>
	<path class="st0" d="M45.65,63.88l-0.11-0.08c-0.8-0.62-0.89-1.8-0.19-2.54c3.67-3.87,7.06-6.68,10.14-8.43
		c3.45-1.94,6.38-2.92,8.8-2.92c1.34,0,2.36,0.29,3.07,0.88c0.71,0.59,1.07,1.38,1.07,2.38c0,1.21-1.36,6.36-4.07,15.43
		c-4.42,14.85-6.63,23.8-6.63,26.85c0,0.59,0.15,1.08,0.44,1.47c0.29,0.4,0.61,0.6,0.94,0.6c1.24,0,4.27-2.23,9.1-6.68
		c0.67-0.61,1.7-0.6,2.35,0.03l0,0c0.7,0.68,0.68,1.82-0.04,2.48c-5.06,4.69-8.8,7.73-11.23,9.12c-2.64,1.51-4.79,2.26-6.46,2.26
		c-1.46,0-2.62-0.46-3.48-1.38c-0.86-0.92-1.29-2.2-1.29-3.83c0-5.23,3.14-18.01,9.41-38.33c0.29-0.96,0.44-1.82,0.44-2.57
		c0-0.84-0.38-1.25-1.13-1.25c-0.84,0-1.79,0.33-2.85,1c-0.96,0.6-2.98,2.39-6.06,5.37C47.28,64.34,46.32,64.4,45.65,63.88z
		 M71.48,23.25c1.3,0,2.36,0.43,3.2,1.29c0.84,0.86,1.25,1.96,1.25,3.29c0,1.84-0.64,3.46-1.91,4.86c-1.28,1.4-2.71,2.1-4.3,2.1
		c-1.25,0-2.3-0.44-3.14-1.32c-0.84-0.88-1.25-2.03-1.25-3.45c0-1.88,0.61-3.48,1.82-4.8C68.37,23.91,69.81,23.25,71.48,23.25z"/>
</g>
</svg>
