<?xml version="1.0" encoding="utf-8"?>
<!-- Generator: Adobe Illustrator 23.0.5, SVG Export Plug-In . SVG Version: 6.00 Build 0)  -->
<svg version="1.1" id="Layer_1" xmlns="http://www.w3.org/2000/svg" xmlns:xlink="http://www.w3.org/1999/xlink" x="0px" y="0px"
	 viewBox="0 0 128 128" style="enable-background:new 0 0 128 128;" xml:space="preserve">
<style type="text/css">
	.st0{fill:#245246;stroke:#84A296;stroke-miterlimit:10;}
	.st1{fill:#245246;stroke:#84A296;stroke-width:1.5;stroke-miterlimit:10;}
</style>
<g>
	<path class="st0" d="M114.86,27.92c0.52-1.76,1.15-3.25,1.89-4.47s1.69-2.6,2.85-4.15c0.87-1.15,1.55-2.11,2.04-2.88
		c0.49-0.78,0.9-1.62,1.22-2.54s0.48-1.91,0.48-2.97v-0.03c0-2.34-0.58-4.14-1.74-5.42c-1.16-1.28-2.78-1.92-4.88-1.92
		c-2.19,0-3.9,0.76-5.12,2.28s-1.84,3.66-1.86,6.42v0.03h-4.44v-0.03c0.08-2.66,0.58-4.93,1.51-6.81c0.93-1.88,2.22-3.32,3.9-4.3
		c1.67-0.99,3.65-1.48,5.95-1.48c2.4,0,4.45,0.44,6.16,1.33s3.01,2.17,3.91,3.85s1.34,3.71,1.34,6.08v0.03c0,1.51-0.2,2.87-0.6,4.08
		s-0.9,2.25-1.49,3.14c-0.59,0.89-1.4,1.97-2.43,3.26c-1.13,1.41-2.03,2.63-2.7,3.67c-0.67,1.04-1.25,2.3-1.72,3.77
		c-0.47,1.48-0.71,3.18-0.71,5.09h-4.35C114.08,31.69,114.34,29.68,114.86,27.92z M113.8,39.05h4.95V44h-4.95V39.05z"/>
</g>
<path class="st1" d="M41.1,48c-0.03,0-0.07,0-0.1,0.01l-9.99,9.99c0,0.03-0.01,0.07-0.01,0.1V100h41.5L83,89.5V48H41.1z"/>
<g>
	<path class="st0" d="M45.23,29.5v13c0,0.83,0.67,1.5,1.5,1.5l0,0c0.83,0,1.5-0.67,1.5-1.5v-13c0-0.83-0.67-1.5-1.5-1.5l0,0
		C45.9,28,45.23,28.67,45.23,29.5z"/>
	<path class="st0" d="M59.37,29.5v13c0,0.83,0.67,1.5,1.5,1.5l0,0c0.83,0,1.5-0.67,1.5-1.5v-13c0-0.83-0.67-1.5-1.5-1.5l0,0
		C60.04,28,59.37,28.67,59.37,29.5z"/>
	<path class="st0" d="M73.5,29.5v13c0,0.83,0.67,1.5,1.5,1.5l0,0c0.83,0,1.5-0.67,1.5-1.5v-13c0-0.83-0.67-1.5-1.5-1.5l0,0
		C74.17,28,73.5,28.67,73.5,29.5z"/>
</g>
<g>
	<path class="st0" d="M37.23,105.5v13c0,0.83,0.67,1.5,1.5,1.5l0,0c0.83,0,1.5-0.67,1.5-1.5v-13c0-0.83-0.67-1.5-1.5-1.5l0,0
		C37.9,104,37.23,104.67,37.23,105.5z"/>
	<path class="st0" d="M51.37,105.5v13c0,0.83,0.67,1.5,1.5,1.5l0,0c0.83,0,1.5-0.67,1.5-1.5v-13c0-0.83-0.67-1.5-1.5-1.5l0,0
		C52.04,104,51.37,104.67,51.37,105.5z"/>
	<path class="st0" d="M65.5,105.5v13c0,0.83,0.67,1.5,1.5,1.5l0,0c0.83,0,1.5-0.67,1.5-1.5v-13c0-0.83-0.67-1.5-1.5-1.5l0,0
		C66.17,104,65.5,104.67,65.5,105.5z"/>
</g>
<g>
	<path class="st0" d="M101.37,83.63h-13c-0.83,0-1.5-0.67-1.5-1.5l0,0c0-0.83,0.67-1.5,1.5-1.5h13c0.83,0,1.5,0.67,1.5,1.5l0,0
		C102.87,82.96,102.19,83.63,101.37,83.63z"/>
	<path class="st0" d="M101.37,69.5h-13c-0.83,0-1.5-0.67-1.5-1.5l0,0c0-0.83,0.67-1.5,1.5-1.5h13c0.83,0,1.5,0.67,1.5,1.5l0,0
		C102.87,68.83,102.19,69.5,101.37,69.5z"/>
	<path class="st0" d="M101.37,55.37h-13c-0.83,0-1.5-0.67-1.5-1.5l0,0c0-0.83,0.67-1.5,1.5-1.5h13c0.83,0,1.5,0.67,1.5,1.5l0,0
		C102.87,54.69,102.19,55.37,101.37,55.37z"/>
</g>
<g>
	<path class="st0" d="M25.37,93.63h-13c-0.83,0-1.5-0.67-1.5-1.5l0,0c0-0.83,0.67-1.5,1.5-1.5h13c0.83,0,1.5,0.67,1.5,1.5l0,0
		C26.87,92.96,26.19,93.63,25.37,93.63z"/>
	<path class="st0" d="M25.37,79.5h-13c-0.83,0-1.5-0.67-1.5-1.5l0,0c0-0.83,0.67-1.5,1.5-1.5h13c0.83,0,1.5,0.67,1.5,1.5l0,0
		C26.87,78.83,26.19,79.5,25.37,79.5z"/>
	<path class="st0" d="M25.37,65.37h-13c-0.83,0-1.5-0.67-1.5-1.5l0,0c0-0.83,0.67-1.5,1.5-1.5h13c0.83,0,1.5,0.67,1.5,1.5l0,0
		C26.87,64.69,26.19,65.37,25.37,65.37z"/>
</g>
</svg>
