<?xml version="1.0" encoding="utf-8"?>
<!-- Generator: Adobe Illustrator 23.0.5, SVG Export Plug-In . SVG Version: 6.00 Build 0)  -->
<svg version="1.1" id="Layer_1" xmlns="http://www.w3.org/2000/svg" xmlns:xlink="http://www.w3.org/1999/xlink" x="0px" y="0px"
	 viewBox="0 0 128 128" style="enable-background:new 0 0 128 128;" xml:space="preserve">
<style type="text/css">
	.st0{fill:#245246;stroke:#84A296;stroke-miterlimit:10;}
	.st1{fill:#245246;stroke:#84A296;stroke-width:0.75;stroke-miterlimit:10;}
</style>
<g>
	<path class="st0" d="M114.86,27.92c0.52-1.76,1.15-3.25,1.89-4.47s1.69-2.6,2.85-4.15c0.87-1.15,1.55-2.11,2.04-2.88
		c0.49-0.78,0.9-1.62,1.22-2.54s0.48-1.91,0.48-2.97v-0.03c0-2.34-0.58-4.14-1.74-5.42c-1.16-1.28-2.78-1.92-4.88-1.92
		c-2.19,0-3.9,0.76-5.12,2.28s-1.84,3.66-1.86,6.42v0.03h-4.44v-0.03c0.08-2.66,0.58-4.93,1.51-6.81c0.93-1.88,2.22-3.32,3.9-4.3
		c1.67-0.99,3.65-1.48,5.95-1.48c2.4,0,4.45,0.44,6.16,1.33s3.01,2.17,3.91,3.85s1.34,3.71,1.34,6.08v0.03c0,1.51-0.2,2.87-0.6,4.08
		s-0.9,2.25-1.49,3.14c-0.59,0.89-1.4,1.97-2.43,3.26c-1.13,1.41-2.03,2.63-2.7,3.67c-0.67,1.04-1.25,2.3-1.72,3.77
		c-0.47,1.48-0.71,3.18-0.71,5.09h-4.35C114.08,31.69,114.34,29.68,114.86,27.92z M113.8,39.05h4.95V44h-4.95V39.05z"/>
</g>
<path class="st1" d="M25.12,77.18c-0.65-0.9-1.46-1.56-2.44-1.98c-0.9-0.39-2.01-0.73-3.31-1.04v-9.57c0.65,0.09,1.3,0.27,1.95,0.54
	c0.97,0.41,1.96,1.03,2.95,1.86l1.32-2.16c-0.76-0.6-1.54-1.09-2.33-1.49s-1.59-0.69-2.39-0.89c-0.5-0.12-1-0.19-1.5-0.24v-2.9
	h-2.53v2.95c-1.09,0.13-2.08,0.38-2.93,0.78c-1.25,0.59-2.2,1.44-2.86,2.56s-0.98,2.47-0.98,4.05v0.02c0,1.56,0.35,2.78,1.04,3.66
	s1.53,1.51,2.51,1.88c0.84,0.32,1.92,0.63,3.22,0.92v9.74c-1.15-0.06-2.22-0.29-3.21-0.72c-1.15-0.5-2.29-1.25-3.42-2.24l-1.35,2.18
	c0.76,0.7,1.58,1.29,2.47,1.76s1.84,0.82,2.86,1.05s1.53,0.35,1.53,0.35s0.39,0,1.13,0v2.85h2.53V88.1
	c1.01-0.14,1.93-0.37,2.74-0.73c1.3-0.58,2.29-1.42,2.97-2.53s1.02-2.44,1.02-4v-0.04C26.09,79.28,25.77,78.07,25.12,77.18z
	 M15.3,73.1c-0.79-0.28-1.44-0.69-1.96-1.26s-0.78-1.32-0.78-2.29v-0.02c0-1.59,0.51-2.83,1.54-3.71c0.71-0.61,1.63-0.99,2.73-1.18
	v8.9C16.24,73.4,15.73,73.25,15.3,73.1z M23.6,80.93c0,1.57-0.54,2.79-1.62,3.66c-0.69,0.55-1.57,0.91-2.62,1.11V76.7
	c0.67,0.17,1.26,0.36,1.75,0.55c0.73,0.29,1.33,0.73,1.79,1.32s0.69,1.37,0.69,2.34V80.93z"/>
<g>
	<path class="st1" d="M97.11,62.13c-0.53-0.73-1.19-1.27-1.99-1.61c-0.73-0.32-1.64-0.6-2.7-0.85v-7.81
		c0.53,0.07,1.06,0.22,1.59,0.44c0.79,0.33,1.6,0.84,2.41,1.52l1.07-1.76c-0.62-0.49-1.25-0.89-1.9-1.21s-1.29-0.56-1.95-0.72
		c-0.41-0.1-0.81-0.16-1.23-0.2v-2.37h-2.06v2.4c-0.89,0.1-1.69,0.31-2.39,0.64c-1.02,0.48-1.79,1.17-2.33,2.09s-0.8,2.01-0.8,3.3
		v0.01c0,1.27,0.28,2.26,0.85,2.98s1.25,1.23,2.05,1.53c0.68,0.26,1.57,0.51,2.62,0.75v7.94c-0.94-0.05-1.81-0.24-2.62-0.59
		c-0.94-0.41-1.87-1.02-2.79-1.83l-1.1,1.78c0.62,0.57,1.29,1.05,2.01,1.43c0.72,0.38,1.5,0.67,2.33,0.86
		c0.83,0.19,1.25,0.29,1.25,0.29s0.32,0,0.92,0v2.32h2.06v-2.43c0.82-0.11,1.58-0.3,2.24-0.6c1.06-0.47,1.87-1.16,2.42-2.06
		c0.55-0.9,0.83-1.99,0.83-3.26v-0.03C97.91,63.85,97.64,62.86,97.11,62.13z M89.11,58.81c-0.64-0.22-1.17-0.57-1.6-1.02
		s-0.64-1.08-0.64-1.86v-0.01c0-1.3,0.42-2.31,1.25-3.02c0.58-0.49,1.33-0.81,2.23-0.96v7.25C89.88,59.05,89.46,58.93,89.11,58.81z
		 M95.87,65.19c0,1.28-0.44,2.27-1.32,2.98c-0.56,0.45-1.28,0.74-2.14,0.9v-7.33c0.55,0.14,1.03,0.29,1.43,0.45
		c0.6,0.24,1.08,0.6,1.46,1.07c0.38,0.48,0.57,1.11,0.57,1.91V65.19z"/>
	<path class="st1" d="M110.16,76.81c-0.53-0.73-1.19-1.27-1.99-1.61c-0.73-0.32-1.64-0.6-2.7-0.85v-7.81
		c0.53,0.07,1.06,0.22,1.59,0.44c0.79,0.33,1.6,0.84,2.41,1.52l1.07-1.76c-0.62-0.49-1.25-0.89-1.9-1.21
		c-0.64-0.32-1.29-0.56-1.95-0.72c-0.41-0.1-0.81-0.16-1.23-0.2v-2.37h-2.06v2.4c-0.89,0.1-1.69,0.31-2.39,0.64
		c-1.02,0.48-1.79,1.17-2.33,2.09s-0.8,2.01-0.8,3.3v0.01c0,1.27,0.28,2.26,0.85,2.98s1.25,1.23,2.05,1.53
		c0.68,0.26,1.57,0.51,2.62,0.75v7.94c-0.94-0.05-1.81-0.24-2.62-0.59c-0.94-0.41-1.87-1.02-2.79-1.83l-1.1,1.78
		c0.62,0.57,1.29,1.05,2.01,1.43c0.72,0.38,1.5,0.67,2.33,0.86c0.83,0.19,1.25,0.29,1.25,0.29s0.32,0,0.92,0v2.32h2.06v-2.43
		c0.82-0.11,1.58-0.3,2.24-0.6c1.06-0.47,1.87-1.16,2.42-2.06c0.55-0.9,0.83-1.99,0.83-3.26v-0.03
		C110.95,78.53,110.69,77.54,110.16,76.81z M102.15,73.48c-0.64-0.22-1.17-0.57-1.6-1.02c-0.43-0.46-0.64-1.08-0.64-1.86v-0.01
		c0-1.3,0.42-2.31,1.25-3.02c0.58-0.49,1.33-0.81,2.23-0.96v7.25C102.92,73.73,102.5,73.61,102.15,73.48z M108.92,79.87
		c0,1.28-0.44,2.27-1.32,2.98c-0.56,0.45-1.28,0.74-2.14,0.9v-7.33c0.55,0.14,1.03,0.29,1.43,0.45c0.6,0.24,1.08,0.6,1.46,1.07
		c0.38,0.48,0.57,1.11,0.57,1.91V79.87z"/>
	<path class="st1" d="M123.2,91.49c-0.53-0.73-1.19-1.27-1.99-1.61c-0.73-0.32-1.64-0.6-2.7-0.85v-7.81
		c0.53,0.07,1.06,0.22,1.59,0.44c0.79,0.33,1.6,0.84,2.41,1.52l1.07-1.76c-0.62-0.49-1.25-0.89-1.9-1.21
		c-0.64-0.32-1.29-0.56-1.95-0.72c-0.41-0.1-0.81-0.16-1.23-0.2v-2.37h-2.06v2.4c-0.89,0.1-1.69,0.31-2.39,0.64
		c-1.02,0.48-1.79,1.17-2.33,2.09c-0.54,0.91-0.8,2.01-0.8,3.3v0.01c0,1.27,0.28,2.26,0.85,2.98s1.25,1.23,2.05,1.53
		c0.68,0.26,1.57,0.51,2.62,0.75v7.94c-0.94-0.05-1.81-0.24-2.62-0.59c-0.94-0.41-1.87-1.02-2.79-1.83l-1.1,1.78
		c0.62,0.57,1.29,1.05,2.01,1.43s1.5,0.67,2.33,0.86c0.83,0.19,1.25,0.29,1.25,0.29s0.32,0,0.92,0v2.32h2.06v-2.43
		c0.82-0.11,1.58-0.3,2.24-0.6c1.06-0.47,1.87-1.16,2.42-2.06c0.55-0.9,0.83-1.99,0.83-3.26v-0.03
		C124,93.2,123.73,92.22,123.2,91.49z M115.2,88.16c-0.64-0.22-1.17-0.57-1.6-1.02c-0.43-0.46-0.64-1.08-0.64-1.86v-0.01
		c0-1.3,0.42-2.31,1.25-3.02c0.58-0.49,1.33-0.81,2.23-0.96v7.25C115.97,88.41,115.55,88.28,115.2,88.16z M121.96,94.55
		c0,1.28-0.44,2.27-1.32,2.98c-0.56,0.45-1.28,0.74-2.14,0.9V91.1c0.55,0.14,1.03,0.29,1.43,0.45c0.6,0.24,1.08,0.6,1.46,1.07
		c0.38,0.48,0.57,1.11,0.57,1.91V94.55z"/>
</g>
<polygon class="st1" points="82.5,75.5 75.5,71.5 75.5,74.5 38.5,74.5 38.5,71.5 31.5,75.5 38.5,79.5 38.5,76.5 75.5,76.5 
	75.5,79.5 "/>
</svg>
