<?xml version="1.0" encoding="utf-8"?>
<!-- Generator: Adobe Illustrator 23.0.5, SVG Export Plug-In . SVG Version: 6.00 Build 0)  -->
<svg version="1.1" id="Layer_1" xmlns="http://www.w3.org/2000/svg" xmlns:xlink="http://www.w3.org/1999/xlink" x="0px" y="0px"
	 viewBox="0 0 128 128" style="enable-background:new 0 0 128 128;" xml:space="preserve">
<style type="text/css">
	.st0{fill:#245246;stroke:#84A296;stroke-width:0.5;stroke-miterlimit:10;}
</style>
<g>
	<path class="st0" d="M56.2,12.9C56.2,12.9,56.1,12.9,56.2,12.9l-6.5,6.5c0,0,0,0,0,0.1v27.1h26.8l6.8-6.8V12.9H56.2z"/>
	<g>
		<path class="st0" d="M58.9,1v8.4c0,0.5,0.4,1,1,1l0,0c0.5,0,1-0.4,1-1V1c0-0.5-0.4-1-1-1l0,0C59.3,0,58.9,0.4,58.9,1z"/>
		<path class="st0" d="M68,1v8.4c0,0.5,0.4,1,1,1l0,0c0.5,0,1-0.4,1-1V1c0-0.5-0.4-1-1-1l0,0C68.4,0,68,0.4,68,1z"/>
		<path class="st0" d="M77.1,1v8.4c0,0.5,0.4,1,1,1l0,0c0.5,0,1-0.4,1-1V1c0-0.5-0.4-1-1-1l0,0C77.6,0,77.1,0.4,77.1,1z"/>
	</g>
	<g>
		<path class="st0" d="M53.7,50.1v8.4c0,0.5,0.4,1,1,1l0,0c0.5,0,1-0.4,1-1v-8.4c0-0.5-0.4-1-1-1l0,0C54.1,49.2,53.7,49.6,53.7,50.1
			z"/>
		<path class="st0" d="M62.8,50.1v8.4c0,0.5,0.4,1,1,1l0,0c0.5,0,1-0.4,1-1v-8.4c0-0.5-0.4-1-1-1l0,0C63.3,49.2,62.8,49.6,62.8,50.1
			z"/>
		<path class="st0" d="M71.9,50.1v8.4c0,0.5,0.4,1,1,1l0,0c0.5,0,1-0.4,1-1v-8.4c0-0.5-0.4-1-1-1l0,0C72.4,49.2,71.9,49.6,71.9,50.1
			z"/>
	</g>
	<g>
		<path class="st0" d="M95.2,36h-8.4c-0.5,0-1-0.4-1-1l0,0c0-0.5,0.4-1,1-1h8.4c0.5,0,1,0.4,1,1l0,0C96.1,35.5,95.7,36,95.2,36z"/>
		<path class="st0" d="M95.2,26.8h-8.4c-0.5,0-1-0.4-1-1l0,0c0-0.5,0.4-1,1-1h8.4c0.5,0,1,0.4,1,1l0,0
			C96.1,26.4,95.7,26.8,95.2,26.8z"/>
		<path class="st0" d="M95.2,17.7h-8.4c-0.5,0-1-0.4-1-1l0,0c0-0.5,0.4-1,1-1h8.4c0.5,0,1,0.4,1,1l0,0
			C96.1,17.3,95.7,17.7,95.2,17.7z"/>
	</g>
	<g>
		<path class="st0" d="M46,42.5h-8.4c-0.5,0-1-0.4-1-1l0,0c0-0.5,0.4-1,1-1H46c0.5,0,1,0.4,1,1l0,0C47,42,46.5,42.5,46,42.5z"/>
		<path class="st0" d="M46,33.3h-8.4c-0.5,0-1-0.4-1-1l0,0c0-0.5,0.4-1,1-1H46c0.5,0,1,0.4,1,1l0,0C47,32.9,46.5,33.3,46,33.3z"/>
		<path class="st0" d="M46,24.2h-8.4c-0.5,0-1-0.4-1-1l0,0c0-0.5,0.4-1,1-1H46c0.5,0,1,0.4,1,1l0,0C47,23.7,46.5,24.2,46,24.2z"/>
	</g>
</g>
<polygon class="st0" points="69.8,62.7 69.8,110.2 81.7,110.2 63.9,128 63.7,128 45.9,110.2 57.8,110.2 57.8,62.7 "/>
</svg>
