<?xml version="1.0" encoding="utf-8"?>
<!-- Generator: Adobe Illustrator 23.0.5, SVG Export Plug-In . SVG Version: 6.00 Build 0)  -->
<svg version="1.1" id="Layer_1" xmlns="http://www.w3.org/2000/svg" xmlns:xlink="http://www.w3.org/1999/xlink" x="0px" y="0px"
	 viewBox="0 0 1920 1080" style="enable-background:new 0 0 1920 1080;" xml:space="preserve">
<style type="text/css">
	.st0{opacity:0.175;}
	.st1{fill:#1E352F;}
	.st2{clip-path:url(#SVGID_2_);fill:none;stroke:#84A296;stroke-width:3;stroke-miterlimit:10;}
	.st3{clip-path:url(#SVGID_2_);}
	.st4{fill:none;stroke:#84A296;stroke-width:3;stroke-miterlimit:10;}
</style>
<g class="st0">
	<rect class="st1" width="1920" height="1080"/>
</g>
<g class="st0">
	<defs>
		<rect id="SVGID_1_" x="1" class="st0" width="1920" height="1080"/>
	</defs>
	<clipPath id="SVGID_2_">
		<use xlink:href="#SVGID_1_"  style="overflow:visible;"/>
	</clipPath>
	<polyline class="st2" points="115.5,0 115.5,212.5 278.5,375.5 278.5,1080 	"/>
	<polyline class="st2" points="122.5,0 122.5,210 285.5,373 285.5,1080 	"/>
	<polyline class="st2" points="129.5,0 129.5,207 292.5,370 292.5,1080 	"/>
	<polyline class="st2" points="136.5,0 136.5,205 299.5,368 299.5,1080 	"/>
	<polyline class="st2" points="143.5,0 143.5,202 306.5,365 306.5,1080 	"/>
	<polyline class="st2" points="150.5,0 150.5,200 313.5,363 313.5,1080 	"/>
	<polyline class="st2" points="157.5,0 157.5,197 320.5,360 320.5,1080 	"/>
	<polyline class="st2" points="164.5,0 164.5,195 327.5,358 327.5,1080 	"/>
	<polyline class="st2" points="171.5,0 171.5,192 334.5,355 334.5,1080 	"/>
	<polyline class="st2" points="178.5,0 178.5,189 341.5,352 341.5,1080 	"/>
	<polyline class="st2" points="185.5,0 185.5,186 348.5,349 348.5,1080 	"/>
	<polyline class="st2" points="192.5,0 192.5,184 355.5,347 355.5,1080 	"/>
	<polyline class="st2" points="199.5,0 199.5,181 362.5,344 362.5,1080 	"/>
	<polyline class="st2" points="206.5,0 206.5,179 369.5,342 369.5,1080 	"/>
	<polyline class="st2" points="213.5,0 213.5,176 376.5,339 376.5,1080 	"/>
	<polyline class="st2" points="220.5,0 220.5,174 383.5,337 383.5,1080 	"/>
	<polyline class="st2" points="227.5,0 227.5,171 390.5,334 390.5,1080 	"/>
	<polyline class="st2" points="234.5,0 234.5,168 397.5,331 397.5,1080 	"/>
	<polyline class="st2" points="241.5,0 241.5,165 404.5,328 404.5,1080 	"/>
	<polyline class="st2" points="248.5,0 248.5,163 411.5,326 411.5,1080 	"/>
	<polyline class="st2" points="255.5,0 255.5,160 418.5,323 418.5,1080 	"/>
	<polyline class="st2" points="262.5,0 262.5,158 425.5,321 425.5,1080 	"/>
	<polyline class="st2" points="269.5,0 269.5,155 432.5,318 432.5,1080 	"/>
	<polyline class="st2" points="276.5,0 276.5,153 439.5,316 439.5,1080 	"/>
	<polyline class="st2" points="283.5,0 283.5,150 446.5,313 446.5,1080 	"/>
	<polyline class="st2" points="290.5,0 290.5,147 453.5,310 453.5,1080 	"/>
	<polyline class="st2" points="297.5,0 297.5,144 460.5,307 460.5,1080 	"/>
	<polyline class="st2" points="304.5,0 304.5,142 467.5,305 467.5,1080 	"/>
	<polyline class="st2" points="311.5,0 311.5,139 474.5,302 474.5,1080 	"/>
	<polyline class="st2" points="318.5,0 318.5,137 481.5,300 481.5,1080 	"/>
	<polyline class="st2" points="325.5,0 325.5,134 488.5,297 488.5,1080 	"/>
	<polyline class="st2" points="332.5,0 332.5,132 495.5,295 495.5,1080 	"/>
	<g class="st3">
		<polyline class="st4" points="-105,254.5 165.5,525 165.5,1080 		"/>
		<polyline class="st4" points="-98,251.5 172.5,522 172.5,1080 		"/>
		<polyline class="st4" points="-91,248.5 179.5,519 179.5,1080 		"/>
		<polyline class="st4" points="-84,246.5 186.5,517 186.5,1080 		"/>
		<polyline class="st4" points="-77,243.5 193.5,514 193.5,1080 		"/>
		<polyline class="st4" points="-70,241.5 200.5,512 200.5,1080 		"/>
		<polyline class="st4" points="-63,238.5 207.5,509 207.5,1080 		"/>
		<polyline class="st4" points="-56,236.5 214.5,507 214.5,1080 		"/>
		<polyline class="st4" points="-49,233.5 221.5,504 221.5,1080 		"/>
		<polyline class="st4" points="-42,230.5 228.5,501 228.5,1080 		"/>
		<polyline class="st4" points="-35,227.5 235.5,498 235.5,1080 		"/>
		<polyline class="st4" points="-28,225.5 242.5,496 242.5,1080 		"/>
		<polyline class="st4" points="-21,222.5 249.5,493 249.5,1080 		"/>
		<polyline class="st4" points="-14,220.5 256.5,491 256.5,1080 		"/>
		<polyline class="st4" points="-7,217.5 263.5,488 263.5,1080 		"/>
		<polyline class="st4" points="-1.25,214.25 270.5,486 270.5,1080 		"/>
	</g>
	<polyline class="st2" points="385.5,0 385.5,176 548.5,339 548.5,1080 	"/>
	<polyline class="st2" points="392.5,0 392.5,174 555.5,337 555.5,1080 	"/>
	<polyline class="st2" points="399.5,0 399.5,171 562.5,334 562.5,1080 	"/>
	<polyline class="st2" points="406.5,0 406.5,168 569.5,331 569.5,1080 	"/>
	<polyline class="st2" points="413.5,0 413.5,165 576.5,328 576.5,1080 	"/>
	<polyline class="st2" points="420.5,0 420.5,163 583.5,326 583.5,1080 	"/>
	<polyline class="st2" points="427.5,0 427.5,160 590.5,323 590.5,1080 	"/>
	<polyline class="st2" points="434.5,0 434.5,158 597.5,321 597.5,1080 	"/>
	<polyline class="st2" points="441.5,0 441.5,155 604.5,318 604.5,1080 	"/>
	<polyline class="st2" points="448.5,0 448.5,153 611.5,316 611.5,1080 	"/>
	<polyline class="st2" points="455.5,0 455.5,150 618.5,313 618.5,1080 	"/>
	<polyline class="st2" points="462.5,0 462.5,147 625.5,310 625.5,1080 	"/>
	<polyline class="st2" points="469.5,0 469.5,144 632.5,307 632.5,1080 	"/>
	<polyline class="st2" points="476.5,0 476.5,142 639.5,305 639.5,1080 	"/>
	<polyline class="st2" points="483.5,0 483.5,139 646.5,302 646.5,1080 	"/>
	<polyline class="st2" points="490.5,0 490.5,137 653.5,300 653.5,1080 	"/>
	<polyline class="st2" points="497.5,0 497.5,134 660.5,297 660.5,1080 	"/>
	<polyline class="st2" points="504.5,0 504.5,132 667.5,295 667.5,1080 	"/>
	<polyline class="st2" points="788.5,0 788.5,132 951.5,295 951.5,830.5 878.5,903.5 878.5,1080 	"/>
	<polyline class="st2" points="794.5,0 794.5,129 957.5,292 957.5,832.5 884.5,905.5 884.5,1080 	"/>
	<polyline class="st2" points="800.5,0 800.5,126 963.5,289 963.5,834.5 890.5,907.5 890.5,1080 	"/>
	<polyline class="st2" points="806.5,0 806.5,123 969.5,286 969.5,836.5 896.5,909.5 896.5,1080 	"/>
	<polyline class="st2" points="812.5,0 812.5,120 975.5,283 975.5,839.5 902.5,912.5 902.5,1080 	"/>
	<polyline class="st2" points="818.5,0 818.5,117 981.5,280 981.5,841.5 908.5,914.5 908.5,1080 	"/>
	<polyline class="st2" points="824.5,0 824.5,114 987.5,277 987.5,843.5 914.5,916.5 914.5,1080 	"/>
	<polyline class="st2" points="830.5,0 830.5,111 993.5,274 993.5,845.5 920.5,918.5 920.5,1080 	"/>
	<polyline class="st2" points="1090.5,0 1090.5,132 1253.5,295 1253.5,604.5 1180.5,677.5 1180.5,1080 	"/>
	<polyline class="st2" points="1096.5,0 1096.5,129 1259.5,292 1259.5,606.5 1186.5,679.5 1186.5,1080 	"/>
	<polyline class="st2" points="1102.5,0 1102.5,126 1265.5,289 1265.5,608.5 1192.5,681.5 1192.5,1080 	"/>
	<polyline class="st2" points="1108.5,0 1108.5,123 1271.5,286 1271.5,610.5 1198.5,683.5 1198.5,1080 	"/>
	<polyline class="st2" points="1114.5,0 1114.5,120 1277.5,283 1277.5,613.5 1204.5,686.5 1204.5,1080 	"/>
	<polyline class="st2" points="1120.5,0 1120.5,117 1283.5,280 1283.5,615.5 1210.5,688.5 1210.5,1080 	"/>
	<polyline class="st2" points="1126.5,0 1126.5,114 1289.5,277 1289.5,617.5 1216.5,690.5 1216.5,1080 	"/>
	<polyline class="st2" points="1132.5,0 1132.5,111 1295.5,274 1295.5,619.5 1222.5,692.5 1222.5,1080 	"/>
	<polyline class="st2" points="1163.5,0 1163.5,132 1326.5,295 1326.5,724.5 1228.5,822.5 1228.5,1080 	"/>
	<polyline class="st2" points="1169.5,0 1169.5,129 1332.5,292 1332.5,726.5 1234.5,824.5 1234.5,1080 	"/>
	<polyline class="st2" points="1175.5,0 1175.5,126 1338.5,289 1338.5,728.5 1240.5,826.5 1240.5,1080 	"/>
	<polyline class="st2" points="1181.5,0 1181.5,123 1344.5,286 1344.5,730.5 1246.5,828.5 1246.5,1080 	"/>
	<polyline class="st2" points="1187.5,0 1187.5,120 1350.5,283 1350.5,733.5 1252.5,831.5 1252.5,1080 	"/>
	<polyline class="st2" points="1193.5,0 1193.5,117 1356.5,280 1356.5,735.5 1258.5,833.5 1258.5,1080 	"/>
	<polyline class="st2" points="1199.5,0 1199.5,114 1362.5,277 1362.5,737.5 1264.5,835.5 1264.5,1080 	"/>
	<polyline class="st2" points="1205.5,0 1205.5,111 1368.5,274 1368.5,739.5 1270.5,837.5 1270.5,1080 	"/>
	<polyline class="st2" points="1764.5,0 1764.5,132 1927.5,295 	"/>
	<polyline class="st2" points="1770.5,0 1770.5,129 1933.5,292 	"/>
	<polyline class="st2" points="1776.5,0 1776.5,126 1939.5,289 	"/>
	<polyline class="st2" points="1782.5,0 1782.5,123 1945.5,286 	"/>
	<polyline class="st2" points="1788.5,0 1788.5,120 1951.5,283 	"/>
	<polyline class="st2" points="1794.5,0 1794.5,117 1957.5,280 	"/>
	<polyline class="st2" points="1800.5,0 1800.5,114 1963.5,277 	"/>
	<polyline class="st2" points="1806.5,0 1806.5,111 1969.5,274 	"/>
	<polyline class="st2" points="1492.5,0 1492.5,132 1655.5,295 1655.5,724.5 1557.5,822.5 1557.5,1080 	"/>
	<polyline class="st2" points="1498.5,0 1498.5,129 1661.5,292 1661.5,726.5 1563.5,824.5 1563.5,1080 	"/>
	<polyline class="st2" points="1504.5,0 1504.5,126 1667.5,289 1667.5,728.5 1569.5,826.5 1569.5,1080 	"/>
	<polyline class="st2" points="1510.5,0 1510.5,123 1673.5,286 1673.5,730.5 1575.5,828.5 1575.5,1080 	"/>
	<polyline class="st2" points="1516.5,0 1516.5,120 1679.5,283 1679.5,733.5 1581.5,831.5 1581.5,1080 	"/>
	<polyline class="st2" points="1522.5,0 1522.5,117 1685.5,280 1685.5,735.5 1587.5,833.5 1587.5,1080 	"/>
	<polyline class="st2" points="1528.5,0 1528.5,114 1691.5,277 1691.5,737.5 1593.5,835.5 1593.5,1080 	"/>
	<polyline class="st2" points="1534.5,0 1534.5,111 1697.5,274 1697.5,739.5 1599.5,837.5 1599.5,1080 	"/>
	<polyline class="st2" points="1564.5,0 1564.5,132 1727.5,295 1727.5,607.5 1923,803 	"/>
	<polyline class="st2" points="1570.5,0 1570.5,129 1733.5,292 1733.5,604.5 1928.5,799.5 	"/>
	<polyline class="st2" points="1576.5,0 1576.5,126 1739.5,289 1739.5,601.5 1921.5,783.5 	"/>
	<polyline class="st2" points="1582.5,0 1582.5,123 1745.5,286 1745.5,598.5 1921.5,774.5 	"/>
	<polyline class="st2" points="1588.5,0 1588.5,120 1751.5,283 1751.5,595.5 1925,769 	"/>
	<polyline class="st2" points="1594.5,0 1594.5,117 1757.5,280 1757.5,592.5 1928.5,763.5 	"/>
	<polyline class="st2" points="1600.5,0 1600.5,114 1763.5,277 1763.5,589.5 1923,749 	"/>
	<polyline class="st2" points="1606.5,0 1606.5,111 1769.5,274 1769.5,586.5 1923.5,740.5 	"/>
</g>
</svg>
