<?xml version="1.0" encoding="utf-8"?>
<!-- Generator: Adobe Illustrator 23.0.5, SVG Export Plug-In . SVG Version: 6.00 Build 0)  -->
<svg version="1.1" id="Layer_1" xmlns="http://www.w3.org/2000/svg" xmlns:xlink="http://www.w3.org/1999/xlink" x="0px" y="0px"
	 viewBox="0 0 1920 1080" style="enable-background:new 0 0 1920 1080;" xml:space="preserve">
<style type="text/css">
	.st0{opacity:0.33;}
	.st1{clip-path:url(#SVGID_2_);fill:none;stroke:#84A296;stroke-width:3;stroke-miterlimit:10;}
	.st2{clip-path:url(#SVGID_4_);fill:none;stroke:#84A296;stroke-width:3;stroke-miterlimit:10;}
	.st3{clip-path:url(#SVGID_6_);fill:none;stroke:#84A296;stroke-width:3;stroke-miterlimit:10;}
	.st4{clip-path:url(#SVGID_8_);fill:none;stroke:#84A296;stroke-width:3;stroke-miterlimit:10;}
	.st5{clip-path:url(#SVGID_10_);fill:none;stroke:#84A296;stroke-width:3;stroke-miterlimit:10;}
	.st6{clip-path:url(#SVGID_12_);fill:none;stroke:#84A296;stroke-width:3;stroke-miterlimit:10;}
	.st7{clip-path:url(#SVGID_14_);fill:none;stroke:#84A296;stroke-width:3;stroke-miterlimit:10;}
	.st8{clip-path:url(#SVGID_16_);fill:none;stroke:#84A296;stroke-width:3;stroke-miterlimit:10;}
	.st9{clip-path:url(#SVGID_18_);fill:none;stroke:#84A296;stroke-width:3;stroke-miterlimit:10;}
	.st10{clip-path:url(#SVGID_20_);fill:none;stroke:#84A296;stroke-width:3;stroke-miterlimit:10;}
	.st11{clip-path:url(#SVGID_22_);fill:none;stroke:#84A296;stroke-width:3;stroke-miterlimit:10;}
	.st12{clip-path:url(#SVGID_24_);fill:none;stroke:#84A296;stroke-width:3;stroke-miterlimit:10;}
	.st13{clip-path:url(#SVGID_26_);fill:none;stroke:#84A296;stroke-width:3;stroke-miterlimit:10;}
	.st14{clip-path:url(#SVGID_28_);fill:none;stroke:#84A296;stroke-width:3;stroke-miterlimit:10;}
	.st15{clip-path:url(#SVGID_30_);fill:none;stroke:#84A296;stroke-width:3;stroke-miterlimit:10;}
	.st16{clip-path:url(#SVGID_32_);fill:none;stroke:#84A296;stroke-width:3;stroke-miterlimit:10;}
	.st17{clip-path:url(#SVGID_34_);fill:none;stroke:#84A296;stroke-width:3;stroke-miterlimit:10;}
	.st18{clip-path:url(#SVGID_36_);fill:none;stroke:#84A296;stroke-width:3;stroke-miterlimit:10;}
	.st19{clip-path:url(#SVGID_38_);fill:none;stroke:#84A296;stroke-width:3;stroke-miterlimit:10;}
	.st20{clip-path:url(#SVGID_40_);fill:none;stroke:#84A296;stroke-width:3;stroke-miterlimit:10;}
	.st21{clip-path:url(#SVGID_42_);fill:none;stroke:#84A296;stroke-width:3;stroke-miterlimit:10;}
	.st22{clip-path:url(#SVGID_44_);fill:none;stroke:#84A296;stroke-width:3;stroke-miterlimit:10;}
	.st23{clip-path:url(#SVGID_46_);fill:none;stroke:#84A296;stroke-width:3;stroke-miterlimit:10;}
	.st24{clip-path:url(#SVGID_48_);fill:none;stroke:#84A296;stroke-width:3;stroke-miterlimit:10;}
	.st25{clip-path:url(#SVGID_50_);fill:none;stroke:#84A296;stroke-width:3;stroke-miterlimit:10;}
	.st26{clip-path:url(#SVGID_52_);fill:none;stroke:#84A296;stroke-width:3;stroke-miterlimit:10;}
	.st27{clip-path:url(#SVGID_54_);fill:none;stroke:#84A296;stroke-width:3;stroke-miterlimit:10;}
	.st28{clip-path:url(#SVGID_56_);fill:none;stroke:#84A296;stroke-width:3;stroke-miterlimit:10;}
	.st29{clip-path:url(#SVGID_58_);fill:none;stroke:#84A296;stroke-width:3;stroke-miterlimit:10;}
	.st30{clip-path:url(#SVGID_60_);fill:none;stroke:#84A296;stroke-width:3;stroke-miterlimit:10;}
	.st31{clip-path:url(#SVGID_62_);fill:none;stroke:#84A296;stroke-width:3;stroke-miterlimit:10;}
	.st32{clip-path:url(#SVGID_64_);fill:none;stroke:#84A296;stroke-width:3;stroke-miterlimit:10;}
	.st33{clip-path:url(#SVGID_66_);}
	.st34{fill:none;stroke:#84A296;stroke-width:3;stroke-miterlimit:10;}
	.st35{clip-path:url(#SVGID_68_);fill:none;stroke:#84A296;stroke-width:3;stroke-miterlimit:10;}
	.st36{clip-path:url(#SVGID_70_);fill:none;stroke:#84A296;stroke-width:3;stroke-miterlimit:10;}
	.st37{clip-path:url(#SVGID_72_);fill:none;stroke:#84A296;stroke-width:3;stroke-miterlimit:10;}
	.st38{clip-path:url(#SVGID_74_);fill:none;stroke:#84A296;stroke-width:3;stroke-miterlimit:10;}
	.st39{clip-path:url(#SVGID_76_);fill:none;stroke:#84A296;stroke-width:3;stroke-miterlimit:10;}
	.st40{clip-path:url(#SVGID_78_);fill:none;stroke:#84A296;stroke-width:3;stroke-miterlimit:10;}
	.st41{clip-path:url(#SVGID_80_);fill:none;stroke:#84A296;stroke-width:3;stroke-miterlimit:10;}
	.st42{clip-path:url(#SVGID_82_);fill:none;stroke:#84A296;stroke-width:3;stroke-miterlimit:10;}
	.st43{clip-path:url(#SVGID_84_);fill:none;stroke:#84A296;stroke-width:3;stroke-miterlimit:10;}
	.st44{clip-path:url(#SVGID_86_);fill:none;stroke:#84A296;stroke-width:3;stroke-miterlimit:10;}
	.st45{clip-path:url(#SVGID_88_);fill:none;stroke:#84A296;stroke-width:3;stroke-miterlimit:10;}
	.st46{clip-path:url(#SVGID_90_);fill:none;stroke:#84A296;stroke-width:3;stroke-miterlimit:10;}
	.st47{clip-path:url(#SVGID_92_);fill:none;stroke:#84A296;stroke-width:3;stroke-miterlimit:10;}
	.st48{clip-path:url(#SVGID_94_);fill:none;stroke:#84A296;stroke-width:3;stroke-miterlimit:10;}
	.st49{clip-path:url(#SVGID_96_);fill:none;stroke:#84A296;stroke-width:3;stroke-miterlimit:10;}
	.st50{clip-path:url(#SVGID_98_);fill:none;stroke:#84A296;stroke-width:3;stroke-miterlimit:10;}
	.st51{clip-path:url(#SVGID_100_);fill:none;stroke:#84A296;stroke-width:3;stroke-miterlimit:10;}
	.st52{clip-path:url(#SVGID_102_);fill:none;stroke:#84A296;stroke-width:3;stroke-miterlimit:10;}
	.st53{clip-path:url(#SVGID_104_);fill:none;stroke:#84A296;stroke-width:3;stroke-miterlimit:10;}
	.st54{clip-path:url(#SVGID_106_);fill:none;stroke:#84A296;stroke-width:3;stroke-miterlimit:10;}
	.st55{clip-path:url(#SVGID_108_);fill:none;stroke:#84A296;stroke-width:3;stroke-miterlimit:10;}
	.st56{clip-path:url(#SVGID_110_);fill:none;stroke:#84A296;stroke-width:3;stroke-miterlimit:10;}
	.st57{clip-path:url(#SVGID_112_);fill:none;stroke:#84A296;stroke-width:3;stroke-miterlimit:10;}
	.st58{clip-path:url(#SVGID_114_);fill:none;stroke:#84A296;stroke-width:3;stroke-miterlimit:10;}
	.st59{clip-path:url(#SVGID_116_);fill:none;stroke:#84A296;stroke-width:3;stroke-miterlimit:10;}
	.st60{clip-path:url(#SVGID_118_);fill:none;stroke:#84A296;stroke-width:3;stroke-miterlimit:10;}
	.st61{clip-path:url(#SVGID_120_);fill:none;stroke:#84A296;stroke-width:3;stroke-miterlimit:10;}
	.st62{clip-path:url(#SVGID_122_);fill:none;stroke:#84A296;stroke-width:3;stroke-miterlimit:10;}
	.st63{clip-path:url(#SVGID_124_);fill:none;stroke:#84A296;stroke-width:3;stroke-miterlimit:10;}
	.st64{clip-path:url(#SVGID_126_);fill:none;stroke:#84A296;stroke-width:3;stroke-miterlimit:10;}
	.st65{clip-path:url(#SVGID_128_);fill:none;stroke:#84A296;stroke-width:3;stroke-miterlimit:10;}
	.st66{clip-path:url(#SVGID_130_);fill:none;stroke:#84A296;stroke-width:3;stroke-miterlimit:10;}
	.st67{clip-path:url(#SVGID_132_);fill:none;stroke:#84A296;stroke-width:3;stroke-miterlimit:10;}
	.st68{clip-path:url(#SVGID_134_);fill:none;stroke:#84A296;stroke-width:3;stroke-miterlimit:10;}
	.st69{clip-path:url(#SVGID_136_);fill:none;stroke:#84A296;stroke-width:3;stroke-miterlimit:10;}
	.st70{clip-path:url(#SVGID_138_);fill:none;stroke:#84A296;stroke-width:3;stroke-miterlimit:10;}
	.st71{clip-path:url(#SVGID_140_);fill:none;stroke:#84A296;stroke-width:3;stroke-miterlimit:10;}
	.st72{clip-path:url(#SVGID_142_);fill:none;stroke:#84A296;stroke-width:3;stroke-miterlimit:10;}
	.st73{clip-path:url(#SVGID_144_);fill:none;stroke:#84A296;stroke-width:3;stroke-miterlimit:10;}
	.st74{clip-path:url(#SVGID_146_);fill:none;stroke:#84A296;stroke-width:3;stroke-miterlimit:10;}
	.st75{clip-path:url(#SVGID_148_);fill:none;stroke:#84A296;stroke-width:3;stroke-miterlimit:10;}
	.st76{clip-path:url(#SVGID_150_);fill:none;stroke:#84A296;stroke-width:3;stroke-miterlimit:10;}
	.st77{clip-path:url(#SVGID_152_);fill:none;stroke:#84A296;stroke-width:3;stroke-miterlimit:10;}
	.st78{clip-path:url(#SVGID_154_);fill:none;stroke:#84A296;stroke-width:3;stroke-miterlimit:10;}
	.st79{clip-path:url(#SVGID_156_);fill:none;stroke:#84A296;stroke-width:3;stroke-miterlimit:10;}
	.st80{clip-path:url(#SVGID_158_);fill:none;stroke:#84A296;stroke-width:3;stroke-miterlimit:10;}
	.st81{clip-path:url(#SVGID_160_);fill:none;stroke:#84A296;stroke-width:3;stroke-miterlimit:10;}
	.st82{clip-path:url(#SVGID_162_);fill:none;stroke:#84A296;stroke-width:3;stroke-miterlimit:10;}
	.st83{clip-path:url(#SVGID_164_);fill:none;stroke:#84A296;stroke-width:3;stroke-miterlimit:10;}
	.st84{clip-path:url(#SVGID_166_);fill:none;stroke:#84A296;stroke-width:3;stroke-miterlimit:10;}
	.st85{clip-path:url(#SVGID_168_);fill:none;stroke:#84A296;stroke-width:3;stroke-miterlimit:10;}
	.st86{clip-path:url(#SVGID_170_);fill:none;stroke:#84A296;stroke-width:3;stroke-miterlimit:10;}
	.st87{clip-path:url(#SVGID_172_);fill:none;stroke:#84A296;stroke-width:3;stroke-miterlimit:10;}
	.st88{clip-path:url(#SVGID_174_);fill:none;stroke:#84A296;stroke-width:3;stroke-miterlimit:10;}
	.st89{clip-path:url(#SVGID_176_);fill:none;stroke:#84A296;stroke-width:3;stroke-miterlimit:10;}
	.st90{clip-path:url(#SVGID_178_);fill:none;stroke:#84A296;stroke-width:3;stroke-miterlimit:10;}
	.st91{clip-path:url(#SVGID_180_);fill:none;stroke:#84A296;stroke-width:3;stroke-miterlimit:10;}
	.st92{clip-path:url(#SVGID_182_);fill:none;stroke:#84A296;stroke-width:3;stroke-miterlimit:10;}
	.st93{clip-path:url(#SVGID_184_);fill:none;stroke:#84A296;stroke-width:3;stroke-miterlimit:10;}
	.st94{clip-path:url(#SVGID_186_);fill:none;stroke:#84A296;stroke-width:3;stroke-miterlimit:10;}
	.st95{clip-path:url(#SVGID_188_);fill:none;stroke:#84A296;stroke-width:3;stroke-miterlimit:10;}
	.st96{clip-path:url(#SVGID_190_);fill:none;stroke:#84A296;stroke-width:3;stroke-miterlimit:10;}
	.st97{clip-path:url(#SVGID_192_);fill:none;stroke:#84A296;stroke-width:3;stroke-miterlimit:10;}
	.st98{clip-path:url(#SVGID_194_);fill:none;stroke:#84A296;stroke-width:3;stroke-miterlimit:10;}
	.st99{clip-path:url(#SVGID_196_);fill:none;stroke:#84A296;stroke-width:3;stroke-miterlimit:10;}
	.st100{clip-path:url(#SVGID_198_);fill:none;stroke:#84A296;stroke-width:3;stroke-miterlimit:10;}
</style>
<g class="st0">
	<g>
		<defs>
			<rect id="SVGID_1_" x="1" width="1920" height="1080"/>
		</defs>
		<clipPath id="SVGID_2_">
			<use xlink:href="#SVGID_1_"  style="overflow:visible;"/>
		</clipPath>
		<polyline class="st1" points="115.5,0 115.5,212.5 278.5,375.5 278.5,1080 		"/>
	</g>
	<g>
		<defs>
			<rect id="SVGID_3_" x="1" width="1920" height="1080"/>
		</defs>
		<clipPath id="SVGID_4_">
			<use xlink:href="#SVGID_3_"  style="overflow:visible;"/>
		</clipPath>
		<polyline class="st2" points="122.5,0 122.5,210 285.5,373 285.5,1080 		"/>
	</g>
	<g>
		<defs>
			<rect id="SVGID_5_" x="1" width="1920" height="1080"/>
		</defs>
		<clipPath id="SVGID_6_">
			<use xlink:href="#SVGID_5_"  style="overflow:visible;"/>
		</clipPath>
		<polyline class="st3" points="129.5,0 129.5,207 292.5,370 292.5,1080 		"/>
	</g>
	<g>
		<defs>
			<rect id="SVGID_7_" x="1" width="1920" height="1080"/>
		</defs>
		<clipPath id="SVGID_8_">
			<use xlink:href="#SVGID_7_"  style="overflow:visible;"/>
		</clipPath>
		<polyline class="st4" points="136.5,0 136.5,205 299.5,368 299.5,1080 		"/>
	</g>
	<g>
		<defs>
			<rect id="SVGID_9_" x="1" width="1920" height="1080"/>
		</defs>
		<clipPath id="SVGID_10_">
			<use xlink:href="#SVGID_9_"  style="overflow:visible;"/>
		</clipPath>
		<polyline class="st5" points="143.5,0 143.5,202 306.5,365 306.5,1080 		"/>
	</g>
	<g>
		<defs>
			<rect id="SVGID_11_" x="1" width="1920" height="1080"/>
		</defs>
		<clipPath id="SVGID_12_">
			<use xlink:href="#SVGID_11_"  style="overflow:visible;"/>
		</clipPath>
		<polyline class="st6" points="150.5,0 150.5,200 313.5,363 313.5,1080 		"/>
	</g>
	<g>
		<defs>
			<rect id="SVGID_13_" x="1" width="1920" height="1080"/>
		</defs>
		<clipPath id="SVGID_14_">
			<use xlink:href="#SVGID_13_"  style="overflow:visible;"/>
		</clipPath>
		<polyline class="st7" points="157.5,0 157.5,197 320.5,360 320.5,1080 		"/>
	</g>
	<g>
		<defs>
			<rect id="SVGID_15_" x="1" width="1920" height="1080"/>
		</defs>
		<clipPath id="SVGID_16_">
			<use xlink:href="#SVGID_15_"  style="overflow:visible;"/>
		</clipPath>
		<polyline class="st8" points="164.5,0 164.5,195 327.5,358 327.5,1080 		"/>
	</g>
	<g>
		<defs>
			<rect id="SVGID_17_" x="1" width="1920" height="1080"/>
		</defs>
		<clipPath id="SVGID_18_">
			<use xlink:href="#SVGID_17_"  style="overflow:visible;"/>
		</clipPath>
		<polyline class="st9" points="171.5,0 171.5,192 334.5,355 334.5,1080 		"/>
	</g>
	<g>
		<defs>
			<rect id="SVGID_19_" x="1" width="1920" height="1080"/>
		</defs>
		<clipPath id="SVGID_20_">
			<use xlink:href="#SVGID_19_"  style="overflow:visible;"/>
		</clipPath>
		<polyline class="st10" points="178.5,0 178.5,189 341.5,352 341.5,1080 		"/>
	</g>
	<g>
		<defs>
			<rect id="SVGID_21_" x="1" width="1920" height="1080"/>
		</defs>
		<clipPath id="SVGID_22_">
			<use xlink:href="#SVGID_21_"  style="overflow:visible;"/>
		</clipPath>
		<polyline class="st11" points="185.5,0 185.5,186 348.5,349 348.5,1080 		"/>
	</g>
	<g>
		<defs>
			<rect id="SVGID_23_" x="1" width="1920" height="1080"/>
		</defs>
		<clipPath id="SVGID_24_">
			<use xlink:href="#SVGID_23_"  style="overflow:visible;"/>
		</clipPath>
		<polyline class="st12" points="192.5,0 192.5,184 355.5,347 355.5,1080 		"/>
	</g>
	<g>
		<defs>
			<rect id="SVGID_25_" x="1" width="1920" height="1080"/>
		</defs>
		<clipPath id="SVGID_26_">
			<use xlink:href="#SVGID_25_"  style="overflow:visible;"/>
		</clipPath>
		<polyline class="st13" points="199.5,0 199.5,181 362.5,344 362.5,1080 		"/>
	</g>
	<g>
		<defs>
			<rect id="SVGID_27_" x="1" width="1920" height="1080"/>
		</defs>
		<clipPath id="SVGID_28_">
			<use xlink:href="#SVGID_27_"  style="overflow:visible;"/>
		</clipPath>
		<polyline class="st14" points="206.5,0 206.5,179 369.5,342 369.5,1080 		"/>
	</g>
	<g>
		<defs>
			<rect id="SVGID_29_" x="1" width="1920" height="1080"/>
		</defs>
		<clipPath id="SVGID_30_">
			<use xlink:href="#SVGID_29_"  style="overflow:visible;"/>
		</clipPath>
		<polyline class="st15" points="213.5,0 213.5,176 376.5,339 376.5,1080 		"/>
	</g>
	<g>
		<defs>
			<rect id="SVGID_31_" x="1" width="1920" height="1080"/>
		</defs>
		<clipPath id="SVGID_32_">
			<use xlink:href="#SVGID_31_"  style="overflow:visible;"/>
		</clipPath>
		<polyline class="st16" points="220.5,0 220.5,174 383.5,337 383.5,1080 		"/>
	</g>
	<g>
		<defs>
			<rect id="SVGID_33_" x="1" width="1920" height="1080"/>
		</defs>
		<clipPath id="SVGID_34_">
			<use xlink:href="#SVGID_33_"  style="overflow:visible;"/>
		</clipPath>
		<polyline class="st17" points="227.5,0 227.5,171 390.5,334 390.5,1080 		"/>
	</g>
	<g>
		<defs>
			<rect id="SVGID_35_" x="1" width="1920" height="1080"/>
		</defs>
		<clipPath id="SVGID_36_">
			<use xlink:href="#SVGID_35_"  style="overflow:visible;"/>
		</clipPath>
		<polyline class="st18" points="234.5,0 234.5,168 397.5,331 397.5,1080 		"/>
	</g>
	<g>
		<defs>
			<rect id="SVGID_37_" x="1" width="1920" height="1080"/>
		</defs>
		<clipPath id="SVGID_38_">
			<use xlink:href="#SVGID_37_"  style="overflow:visible;"/>
		</clipPath>
		<polyline class="st19" points="241.5,0 241.5,165 404.5,328 404.5,1080 		"/>
	</g>
	<g>
		<defs>
			<rect id="SVGID_39_" x="1" width="1920" height="1080"/>
		</defs>
		<clipPath id="SVGID_40_">
			<use xlink:href="#SVGID_39_"  style="overflow:visible;"/>
		</clipPath>
		<polyline class="st20" points="248.5,0 248.5,163 411.5,326 411.5,1080 		"/>
	</g>
	<g>
		<defs>
			<rect id="SVGID_41_" x="1" width="1920" height="1080"/>
		</defs>
		<clipPath id="SVGID_42_">
			<use xlink:href="#SVGID_41_"  style="overflow:visible;"/>
		</clipPath>
		<polyline class="st21" points="255.5,0 255.5,160 418.5,323 418.5,1080 		"/>
	</g>
	<g>
		<defs>
			<rect id="SVGID_43_" x="1" width="1920" height="1080"/>
		</defs>
		<clipPath id="SVGID_44_">
			<use xlink:href="#SVGID_43_"  style="overflow:visible;"/>
		</clipPath>
		<polyline class="st22" points="262.5,0 262.5,158 425.5,321 425.5,1080 		"/>
	</g>
	<g>
		<defs>
			<rect id="SVGID_45_" x="1" width="1920" height="1080"/>
		</defs>
		<clipPath id="SVGID_46_">
			<use xlink:href="#SVGID_45_"  style="overflow:visible;"/>
		</clipPath>
		<polyline class="st23" points="269.5,0 269.5,155 432.5,318 432.5,1080 		"/>
	</g>
	<g>
		<defs>
			<rect id="SVGID_47_" x="1" width="1920" height="1080"/>
		</defs>
		<clipPath id="SVGID_48_">
			<use xlink:href="#SVGID_47_"  style="overflow:visible;"/>
		</clipPath>
		<polyline class="st24" points="276.5,0 276.5,153 439.5,316 439.5,1080 		"/>
	</g>
	<g>
		<defs>
			<rect id="SVGID_49_" x="1" width="1920" height="1080"/>
		</defs>
		<clipPath id="SVGID_50_">
			<use xlink:href="#SVGID_49_"  style="overflow:visible;"/>
		</clipPath>
		<polyline class="st25" points="283.5,0 283.5,150 446.5,313 446.5,1080 		"/>
	</g>
	<g>
		<defs>
			<rect id="SVGID_51_" x="1" width="1920" height="1080"/>
		</defs>
		<clipPath id="SVGID_52_">
			<use xlink:href="#SVGID_51_"  style="overflow:visible;"/>
		</clipPath>
		<polyline class="st26" points="290.5,0 290.5,147 453.5,310 453.5,1080 		"/>
	</g>
	<g>
		<defs>
			<rect id="SVGID_53_" x="1" width="1920" height="1080"/>
		</defs>
		<clipPath id="SVGID_54_">
			<use xlink:href="#SVGID_53_"  style="overflow:visible;"/>
		</clipPath>
		<polyline class="st27" points="297.5,0 297.5,144 460.5,307 460.5,1080 		"/>
	</g>
	<g>
		<defs>
			<rect id="SVGID_55_" x="1" width="1920" height="1080"/>
		</defs>
		<clipPath id="SVGID_56_">
			<use xlink:href="#SVGID_55_"  style="overflow:visible;"/>
		</clipPath>
		<polyline class="st28" points="304.5,0 304.5,142 467.5,305 467.5,1080 		"/>
	</g>
	<g>
		<defs>
			<rect id="SVGID_57_" x="1" width="1920" height="1080"/>
		</defs>
		<clipPath id="SVGID_58_">
			<use xlink:href="#SVGID_57_"  style="overflow:visible;"/>
		</clipPath>
		<polyline class="st29" points="311.5,0 311.5,139 474.5,302 474.5,1080 		"/>
	</g>
	<g>
		<defs>
			<rect id="SVGID_59_" x="1" width="1920" height="1080"/>
		</defs>
		<clipPath id="SVGID_60_">
			<use xlink:href="#SVGID_59_"  style="overflow:visible;"/>
		</clipPath>
		<polyline class="st30" points="318.5,0 318.5,137 481.5,300 481.5,1080 		"/>
	</g>
	<g>
		<defs>
			<rect id="SVGID_61_" x="1" width="1920" height="1080"/>
		</defs>
		<clipPath id="SVGID_62_">
			<use xlink:href="#SVGID_61_"  style="overflow:visible;"/>
		</clipPath>
		<polyline class="st31" points="325.5,0 325.5,134 488.5,297 488.5,1080 		"/>
	</g>
	<g>
		<defs>
			<rect id="SVGID_63_" x="1" width="1920" height="1080"/>
		</defs>
		<clipPath id="SVGID_64_">
			<use xlink:href="#SVGID_63_"  style="overflow:visible;"/>
		</clipPath>
		<polyline class="st32" points="332.5,0 332.5,132 495.5,295 495.5,1080 		"/>
	</g>
	<g>
		<defs>
			<rect id="SVGID_65_" x="1" width="1920" height="1080"/>
		</defs>
		<clipPath id="SVGID_66_">
			<use xlink:href="#SVGID_65_"  style="overflow:visible;"/>
		</clipPath>
		<g class="st33">
			<polyline class="st34" points="-105,254.5 165.5,525 165.5,1080 			"/>
			<polyline class="st34" points="-98,251.5 172.5,522 172.5,1080 			"/>
			<polyline class="st34" points="-91,248.5 179.5,519 179.5,1080 			"/>
			<polyline class="st34" points="-84,246.5 186.5,517 186.5,1080 			"/>
			<polyline class="st34" points="-77,243.5 193.5,514 193.5,1080 			"/>
			<polyline class="st34" points="-70,241.5 200.5,512 200.5,1080 			"/>
			<polyline class="st34" points="-63,238.5 207.5,509 207.5,1080 			"/>
			<polyline class="st34" points="-56,236.5 214.5,507 214.5,1080 			"/>
			<polyline class="st34" points="-49,233.5 221.5,504 221.5,1080 			"/>
			<polyline class="st34" points="-42,230.5 228.5,501 228.5,1080 			"/>
			<polyline class="st34" points="-35,227.5 235.5,498 235.5,1080 			"/>
			<polyline class="st34" points="-28,225.5 242.5,496 242.5,1080 			"/>
			<polyline class="st34" points="-21,222.5 249.5,493 249.5,1080 			"/>
			<polyline class="st34" points="-14,220.5 256.5,491 256.5,1080 			"/>
			<polyline class="st34" points="-7,217.5 263.5,488 263.5,1080 			"/>
			<polyline class="st34" points="-1.3,214.3 270.5,486 270.5,1080 			"/>
		</g>
	</g>
	<g>
		<defs>
			<rect id="SVGID_67_" x="1" width="1920" height="1080"/>
		</defs>
		<clipPath id="SVGID_68_">
			<use xlink:href="#SVGID_67_"  style="overflow:visible;"/>
		</clipPath>
		<polyline class="st35" points="385.5,0 385.5,176 548.5,339 548.5,1080 		"/>
	</g>
	<g>
		<defs>
			<rect id="SVGID_69_" x="1" width="1920" height="1080"/>
		</defs>
		<clipPath id="SVGID_70_">
			<use xlink:href="#SVGID_69_"  style="overflow:visible;"/>
		</clipPath>
		<polyline class="st36" points="392.5,0 392.5,174 555.5,337 555.5,1080 		"/>
	</g>
	<g>
		<defs>
			<rect id="SVGID_71_" x="1" width="1920" height="1080"/>
		</defs>
		<clipPath id="SVGID_72_">
			<use xlink:href="#SVGID_71_"  style="overflow:visible;"/>
		</clipPath>
		<polyline class="st37" points="399.5,0 399.5,171 562.5,334 562.5,1080 		"/>
	</g>
	<g>
		<defs>
			<rect id="SVGID_73_" x="1" width="1920" height="1080"/>
		</defs>
		<clipPath id="SVGID_74_">
			<use xlink:href="#SVGID_73_"  style="overflow:visible;"/>
		</clipPath>
		<polyline class="st38" points="406.5,0 406.5,168 569.5,331 569.5,1080 		"/>
	</g>
	<g>
		<defs>
			<rect id="SVGID_75_" x="1" width="1920" height="1080"/>
		</defs>
		<clipPath id="SVGID_76_">
			<use xlink:href="#SVGID_75_"  style="overflow:visible;"/>
		</clipPath>
		<polyline class="st39" points="413.5,0 413.5,165 576.5,328 576.5,1080 		"/>
	</g>
	<g>
		<defs>
			<rect id="SVGID_77_" x="1" width="1920" height="1080"/>
		</defs>
		<clipPath id="SVGID_78_">
			<use xlink:href="#SVGID_77_"  style="overflow:visible;"/>
		</clipPath>
		<polyline class="st40" points="420.5,0 420.5,163 583.5,326 583.5,1080 		"/>
	</g>
	<g>
		<defs>
			<rect id="SVGID_79_" x="1" width="1920" height="1080"/>
		</defs>
		<clipPath id="SVGID_80_">
			<use xlink:href="#SVGID_79_"  style="overflow:visible;"/>
		</clipPath>
		<polyline class="st41" points="427.5,0 427.5,160 590.5,323 590.5,1080 		"/>
	</g>
	<g>
		<defs>
			<rect id="SVGID_81_" x="1" width="1920" height="1080"/>
		</defs>
		<clipPath id="SVGID_82_">
			<use xlink:href="#SVGID_81_"  style="overflow:visible;"/>
		</clipPath>
		<polyline class="st42" points="434.5,0 434.5,158 597.5,321 597.5,1080 		"/>
	</g>
	<g>
		<defs>
			<rect id="SVGID_83_" x="1" width="1920" height="1080"/>
		</defs>
		<clipPath id="SVGID_84_">
			<use xlink:href="#SVGID_83_"  style="overflow:visible;"/>
		</clipPath>
		<polyline class="st43" points="441.5,0 441.5,155 604.5,318 604.5,1080 		"/>
	</g>
	<g>
		<defs>
			<rect id="SVGID_85_" x="1" width="1920" height="1080"/>
		</defs>
		<clipPath id="SVGID_86_">
			<use xlink:href="#SVGID_85_"  style="overflow:visible;"/>
		</clipPath>
		<polyline class="st44" points="448.5,0 448.5,153 611.5,316 611.5,1080 		"/>
	</g>
	<g>
		<defs>
			<rect id="SVGID_87_" x="1" width="1920" height="1080"/>
		</defs>
		<clipPath id="SVGID_88_">
			<use xlink:href="#SVGID_87_"  style="overflow:visible;"/>
		</clipPath>
		<polyline class="st45" points="455.5,0 455.5,150 618.5,313 618.5,1080 		"/>
	</g>
	<g>
		<defs>
			<rect id="SVGID_89_" x="1" width="1920" height="1080"/>
		</defs>
		<clipPath id="SVGID_90_">
			<use xlink:href="#SVGID_89_"  style="overflow:visible;"/>
		</clipPath>
		<polyline class="st46" points="462.5,0 462.5,147 625.5,310 625.5,1080 		"/>
	</g>
	<g>
		<defs>
			<rect id="SVGID_91_" x="1" width="1920" height="1080"/>
		</defs>
		<clipPath id="SVGID_92_">
			<use xlink:href="#SVGID_91_"  style="overflow:visible;"/>
		</clipPath>
		<polyline class="st47" points="469.5,0 469.5,144 632.5,307 632.5,1080 		"/>
	</g>
	<g>
		<defs>
			<rect id="SVGID_93_" x="1" width="1920" height="1080"/>
		</defs>
		<clipPath id="SVGID_94_">
			<use xlink:href="#SVGID_93_"  style="overflow:visible;"/>
		</clipPath>
		<polyline class="st48" points="476.5,0 476.5,142 639.5,305 639.5,1080 		"/>
	</g>
	<g>
		<defs>
			<rect id="SVGID_95_" x="1" width="1920" height="1080"/>
		</defs>
		<clipPath id="SVGID_96_">
			<use xlink:href="#SVGID_95_"  style="overflow:visible;"/>
		</clipPath>
		<polyline class="st49" points="483.5,0 483.5,139 646.5,302 646.5,1080 		"/>
	</g>
	<g>
		<defs>
			<rect id="SVGID_97_" x="1" width="1920" height="1080"/>
		</defs>
		<clipPath id="SVGID_98_">
			<use xlink:href="#SVGID_97_"  style="overflow:visible;"/>
		</clipPath>
		<polyline class="st50" points="490.5,0 490.5,137 653.5,300 653.5,1080 		"/>
	</g>
	<g>
		<defs>
			<rect id="SVGID_99_" x="1" width="1920" height="1080"/>
		</defs>
		<clipPath id="SVGID_100_">
			<use xlink:href="#SVGID_99_"  style="overflow:visible;"/>
		</clipPath>
		<polyline class="st51" points="497.5,0 497.5,134 660.5,297 660.5,1080 		"/>
	</g>
	<g>
		<defs>
			<rect id="SVGID_101_" x="1" width="1920" height="1080"/>
		</defs>
		<clipPath id="SVGID_102_">
			<use xlink:href="#SVGID_101_"  style="overflow:visible;"/>
		</clipPath>
		<polyline class="st52" points="504.5,0 504.5,132 667.5,295 667.5,1080 		"/>
	</g>
	<g>
		<defs>
			<rect id="SVGID_103_" x="1" width="1920" height="1080"/>
		</defs>
		<clipPath id="SVGID_104_">
			<use xlink:href="#SVGID_103_"  style="overflow:visible;"/>
		</clipPath>
		<polyline class="st53" points="788.5,0 788.5,132 951.5,295 951.5,830.5 878.5,903.5 878.5,1080 		"/>
	</g>
	<g>
		<defs>
			<rect id="SVGID_105_" x="1" width="1920" height="1080"/>
		</defs>
		<clipPath id="SVGID_106_">
			<use xlink:href="#SVGID_105_"  style="overflow:visible;"/>
		</clipPath>
		<polyline class="st54" points="794.5,0 794.5,129 957.5,292 957.5,832.5 884.5,905.5 884.5,1080 		"/>
	</g>
	<g>
		<defs>
			<rect id="SVGID_107_" x="1" width="1920" height="1080"/>
		</defs>
		<clipPath id="SVGID_108_">
			<use xlink:href="#SVGID_107_"  style="overflow:visible;"/>
		</clipPath>
		<polyline class="st55" points="800.5,0 800.5,126 963.5,289 963.5,834.5 890.5,907.5 890.5,1080 		"/>
	</g>
	<g>
		<defs>
			<rect id="SVGID_109_" x="1" width="1920" height="1080"/>
		</defs>
		<clipPath id="SVGID_110_">
			<use xlink:href="#SVGID_109_"  style="overflow:visible;"/>
		</clipPath>
		<polyline class="st56" points="806.5,0 806.5,123 969.5,286 969.5,836.5 896.5,909.5 896.5,1080 		"/>
	</g>
	<g>
		<defs>
			<rect id="SVGID_111_" x="1" width="1920" height="1080"/>
		</defs>
		<clipPath id="SVGID_112_">
			<use xlink:href="#SVGID_111_"  style="overflow:visible;"/>
		</clipPath>
		<polyline class="st57" points="812.5,0 812.5,120 975.5,283 975.5,839.5 902.5,912.5 902.5,1080 		"/>
	</g>
	<g>
		<defs>
			<rect id="SVGID_113_" x="1" width="1920" height="1080"/>
		</defs>
		<clipPath id="SVGID_114_">
			<use xlink:href="#SVGID_113_"  style="overflow:visible;"/>
		</clipPath>
		<polyline class="st58" points="818.5,0 818.5,117 981.5,280 981.5,841.5 908.5,914.5 908.5,1080 		"/>
	</g>
	<g>
		<defs>
			<rect id="SVGID_115_" x="1" width="1920" height="1080"/>
		</defs>
		<clipPath id="SVGID_116_">
			<use xlink:href="#SVGID_115_"  style="overflow:visible;"/>
		</clipPath>
		<polyline class="st59" points="824.5,0 824.5,114 987.5,277 987.5,843.5 914.5,916.5 914.5,1080 		"/>
	</g>
	<g>
		<defs>
			<rect id="SVGID_117_" x="1" width="1920" height="1080"/>
		</defs>
		<clipPath id="SVGID_118_">
			<use xlink:href="#SVGID_117_"  style="overflow:visible;"/>
		</clipPath>
		<polyline class="st60" points="830.5,0 830.5,111 993.5,274 993.5,845.5 920.5,918.5 920.5,1080 		"/>
	</g>
	<g>
		<defs>
			<rect id="SVGID_119_" x="1" width="1920" height="1080"/>
		</defs>
		<clipPath id="SVGID_120_">
			<use xlink:href="#SVGID_119_"  style="overflow:visible;"/>
		</clipPath>
		<polyline class="st61" points="1090.5,0 1090.5,132 1253.5,295 1253.5,604.5 1180.5,677.5 1180.5,1080 		"/>
	</g>
	<g>
		<defs>
			<rect id="SVGID_121_" x="1" width="1920" height="1080"/>
		</defs>
		<clipPath id="SVGID_122_">
			<use xlink:href="#SVGID_121_"  style="overflow:visible;"/>
		</clipPath>
		<polyline class="st62" points="1096.5,0 1096.5,129 1259.5,292 1259.5,606.5 1186.5,679.5 1186.5,1080 		"/>
	</g>
	<g>
		<defs>
			<rect id="SVGID_123_" x="1" width="1920" height="1080"/>
		</defs>
		<clipPath id="SVGID_124_">
			<use xlink:href="#SVGID_123_"  style="overflow:visible;"/>
		</clipPath>
		<polyline class="st63" points="1102.5,0 1102.5,126 1265.5,289 1265.5,608.5 1192.5,681.5 1192.5,1080 		"/>
	</g>
	<g>
		<defs>
			<rect id="SVGID_125_" x="1" width="1920" height="1080"/>
		</defs>
		<clipPath id="SVGID_126_">
			<use xlink:href="#SVGID_125_"  style="overflow:visible;"/>
		</clipPath>
		<polyline class="st64" points="1108.5,0 1108.5,123 1271.5,286 1271.5,610.5 1198.5,683.5 1198.5,1080 		"/>
	</g>
	<g>
		<defs>
			<rect id="SVGID_127_" x="1" width="1920" height="1080"/>
		</defs>
		<clipPath id="SVGID_128_">
			<use xlink:href="#SVGID_127_"  style="overflow:visible;"/>
		</clipPath>
		<polyline class="st65" points="1114.5,0 1114.5,120 1277.5,283 1277.5,613.5 1204.5,686.5 1204.5,1080 		"/>
	</g>
	<g>
		<defs>
			<rect id="SVGID_129_" x="1" width="1920" height="1080"/>
		</defs>
		<clipPath id="SVGID_130_">
			<use xlink:href="#SVGID_129_"  style="overflow:visible;"/>
		</clipPath>
		<polyline class="st66" points="1120.5,0 1120.5,117 1283.5,280 1283.5,615.5 1210.5,688.5 1210.5,1080 		"/>
	</g>
	<g>
		<defs>
			<rect id="SVGID_131_" x="1" width="1920" height="1080"/>
		</defs>
		<clipPath id="SVGID_132_">
			<use xlink:href="#SVGID_131_"  style="overflow:visible;"/>
		</clipPath>
		<polyline class="st67" points="1126.5,0 1126.5,114 1289.5,277 1289.5,617.5 1216.5,690.5 1216.5,1080 		"/>
	</g>
	<g>
		<defs>
			<rect id="SVGID_133_" x="1" width="1920" height="1080"/>
		</defs>
		<clipPath id="SVGID_134_">
			<use xlink:href="#SVGID_133_"  style="overflow:visible;"/>
		</clipPath>
		<polyline class="st68" points="1132.5,0 1132.5,111 1295.5,274 1295.5,619.5 1222.5,692.5 1222.5,1080 		"/>
	</g>
	<g>
		<defs>
			<rect id="SVGID_135_" x="1" width="1920" height="1080"/>
		</defs>
		<clipPath id="SVGID_136_">
			<use xlink:href="#SVGID_135_"  style="overflow:visible;"/>
		</clipPath>
		<polyline class="st69" points="1163.5,0 1163.5,132 1326.5,295 1326.5,724.5 1228.5,822.5 1228.5,1080 		"/>
	</g>
	<g>
		<defs>
			<rect id="SVGID_137_" x="1" width="1920" height="1080"/>
		</defs>
		<clipPath id="SVGID_138_">
			<use xlink:href="#SVGID_137_"  style="overflow:visible;"/>
		</clipPath>
		<polyline class="st70" points="1169.5,0 1169.5,129 1332.5,292 1332.5,726.5 1234.5,824.5 1234.5,1080 		"/>
	</g>
	<g>
		<defs>
			<rect id="SVGID_139_" x="1" width="1920" height="1080"/>
		</defs>
		<clipPath id="SVGID_140_">
			<use xlink:href="#SVGID_139_"  style="overflow:visible;"/>
		</clipPath>
		<polyline class="st71" points="1175.5,0 1175.5,126 1338.5,289 1338.5,728.5 1240.5,826.5 1240.5,1080 		"/>
	</g>
	<g>
		<defs>
			<rect id="SVGID_141_" x="1" width="1920" height="1080"/>
		</defs>
		<clipPath id="SVGID_142_">
			<use xlink:href="#SVGID_141_"  style="overflow:visible;"/>
		</clipPath>
		<polyline class="st72" points="1181.5,0 1181.5,123 1344.5,286 1344.5,730.5 1246.5,828.5 1246.5,1080 		"/>
	</g>
	<g>
		<defs>
			<rect id="SVGID_143_" x="1" width="1920" height="1080"/>
		</defs>
		<clipPath id="SVGID_144_">
			<use xlink:href="#SVGID_143_"  style="overflow:visible;"/>
		</clipPath>
		<polyline class="st73" points="1187.5,0 1187.5,120 1350.5,283 1350.5,733.5 1252.5,831.5 1252.5,1080 		"/>
	</g>
	<g>
		<defs>
			<rect id="SVGID_145_" x="1" width="1920" height="1080"/>
		</defs>
		<clipPath id="SVGID_146_">
			<use xlink:href="#SVGID_145_"  style="overflow:visible;"/>
		</clipPath>
		<polyline class="st74" points="1193.5,0 1193.5,117 1356.5,280 1356.5,735.5 1258.5,833.5 1258.5,1080 		"/>
	</g>
	<g>
		<defs>
			<rect id="SVGID_147_" x="1" width="1920" height="1080"/>
		</defs>
		<clipPath id="SVGID_148_">
			<use xlink:href="#SVGID_147_"  style="overflow:visible;"/>
		</clipPath>
		<polyline class="st75" points="1199.5,0 1199.5,114 1362.5,277 1362.5,737.5 1264.5,835.5 1264.5,1080 		"/>
	</g>
	<g>
		<defs>
			<rect id="SVGID_149_" x="1" width="1920" height="1080"/>
		</defs>
		<clipPath id="SVGID_150_">
			<use xlink:href="#SVGID_149_"  style="overflow:visible;"/>
		</clipPath>
		<polyline class="st76" points="1205.5,0 1205.5,111 1368.5,274 1368.5,739.5 1270.5,837.5 1270.5,1080 		"/>
	</g>
	<g>
		<defs>
			<rect id="SVGID_151_" x="1" width="1920" height="1080"/>
		</defs>
		<clipPath id="SVGID_152_">
			<use xlink:href="#SVGID_151_"  style="overflow:visible;"/>
		</clipPath>
		<polyline class="st77" points="1764.5,0 1764.5,132 1927.5,295 		"/>
	</g>
	<g>
		<defs>
			<rect id="SVGID_153_" x="1" width="1920" height="1080"/>
		</defs>
		<clipPath id="SVGID_154_">
			<use xlink:href="#SVGID_153_"  style="overflow:visible;"/>
		</clipPath>
		<polyline class="st78" points="1770.5,0 1770.5,129 1933.5,292 		"/>
	</g>
	<g>
		<defs>
			<rect id="SVGID_155_" x="1" width="1920" height="1080"/>
		</defs>
		<clipPath id="SVGID_156_">
			<use xlink:href="#SVGID_155_"  style="overflow:visible;"/>
		</clipPath>
		<polyline class="st79" points="1776.5,0 1776.5,126 1939.5,289 		"/>
	</g>
	<g>
		<defs>
			<rect id="SVGID_157_" x="1" width="1920" height="1080"/>
		</defs>
		<clipPath id="SVGID_158_">
			<use xlink:href="#SVGID_157_"  style="overflow:visible;"/>
		</clipPath>
		<polyline class="st80" points="1782.5,0 1782.5,123 1945.5,286 		"/>
	</g>
	<g>
		<defs>
			<rect id="SVGID_159_" x="1" width="1920" height="1080"/>
		</defs>
		<clipPath id="SVGID_160_">
			<use xlink:href="#SVGID_159_"  style="overflow:visible;"/>
		</clipPath>
		<polyline class="st81" points="1788.5,0 1788.5,120 1951.5,283 		"/>
	</g>
	<g>
		<defs>
			<rect id="SVGID_161_" x="1" width="1920" height="1080"/>
		</defs>
		<clipPath id="SVGID_162_">
			<use xlink:href="#SVGID_161_"  style="overflow:visible;"/>
		</clipPath>
		<polyline class="st82" points="1794.5,0 1794.5,117 1957.5,280 		"/>
	</g>
	<g>
		<defs>
			<rect id="SVGID_163_" x="1" width="1920" height="1080"/>
		</defs>
		<clipPath id="SVGID_164_">
			<use xlink:href="#SVGID_163_"  style="overflow:visible;"/>
		</clipPath>
		<polyline class="st83" points="1800.5,0 1800.5,114 1963.5,277 		"/>
	</g>
	<g>
		<defs>
			<rect id="SVGID_165_" x="1" width="1920" height="1080"/>
		</defs>
		<clipPath id="SVGID_166_">
			<use xlink:href="#SVGID_165_"  style="overflow:visible;"/>
		</clipPath>
		<polyline class="st84" points="1806.5,0 1806.5,111 1969.5,274 		"/>
	</g>
	<g>
		<defs>
			<rect id="SVGID_167_" x="1" width="1920" height="1080"/>
		</defs>
		<clipPath id="SVGID_168_">
			<use xlink:href="#SVGID_167_"  style="overflow:visible;"/>
		</clipPath>
		<polyline class="st85" points="1492.5,0 1492.5,132 1655.5,295 1655.5,724.5 1557.5,822.5 1557.5,1080 		"/>
	</g>
	<g>
		<defs>
			<rect id="SVGID_169_" x="1" width="1920" height="1080"/>
		</defs>
		<clipPath id="SVGID_170_">
			<use xlink:href="#SVGID_169_"  style="overflow:visible;"/>
		</clipPath>
		<polyline class="st86" points="1498.5,0 1498.5,129 1661.5,292 1661.5,726.5 1563.5,824.5 1563.5,1080 		"/>
	</g>
	<g>
		<defs>
			<rect id="SVGID_171_" x="1" width="1920" height="1080"/>
		</defs>
		<clipPath id="SVGID_172_">
			<use xlink:href="#SVGID_171_"  style="overflow:visible;"/>
		</clipPath>
		<polyline class="st87" points="1504.5,0 1504.5,126 1667.5,289 1667.5,728.5 1569.5,826.5 1569.5,1080 		"/>
	</g>
	<g>
		<defs>
			<rect id="SVGID_173_" x="1" width="1920" height="1080"/>
		</defs>
		<clipPath id="SVGID_174_">
			<use xlink:href="#SVGID_173_"  style="overflow:visible;"/>
		</clipPath>
		<polyline class="st88" points="1510.5,0 1510.5,123 1673.5,286 1673.5,730.5 1575.5,828.5 1575.5,1080 		"/>
	</g>
	<g>
		<defs>
			<rect id="SVGID_175_" x="1" width="1920" height="1080"/>
		</defs>
		<clipPath id="SVGID_176_">
			<use xlink:href="#SVGID_175_"  style="overflow:visible;"/>
		</clipPath>
		<polyline class="st89" points="1516.5,0 1516.5,120 1679.5,283 1679.5,733.5 1581.5,831.5 1581.5,1080 		"/>
	</g>
	<g>
		<defs>
			<rect id="SVGID_177_" x="1" width="1920" height="1080"/>
		</defs>
		<clipPath id="SVGID_178_">
			<use xlink:href="#SVGID_177_"  style="overflow:visible;"/>
		</clipPath>
		<polyline class="st90" points="1522.5,0 1522.5,117 1685.5,280 1685.5,735.5 1587.5,833.5 1587.5,1080 		"/>
	</g>
	<g>
		<defs>
			<rect id="SVGID_179_" x="1" width="1920" height="1080"/>
		</defs>
		<clipPath id="SVGID_180_">
			<use xlink:href="#SVGID_179_"  style="overflow:visible;"/>
		</clipPath>
		<polyline class="st91" points="1528.5,0 1528.5,114 1691.5,277 1691.5,737.5 1593.5,835.5 1593.5,1080 		"/>
	</g>
	<g>
		<defs>
			<rect id="SVGID_181_" x="1" width="1920" height="1080"/>
		</defs>
		<clipPath id="SVGID_182_">
			<use xlink:href="#SVGID_181_"  style="overflow:visible;"/>
		</clipPath>
		<polyline class="st92" points="1534.5,0 1534.5,111 1697.5,274 1697.5,739.5 1599.5,837.5 1599.5,1080 		"/>
	</g>
	<g>
		<defs>
			<rect id="SVGID_183_" x="1" width="1920" height="1080"/>
		</defs>
		<clipPath id="SVGID_184_">
			<use xlink:href="#SVGID_183_"  style="overflow:visible;"/>
		</clipPath>
		<polyline class="st93" points="1564.5,0 1564.5,132 1727.5,295 1727.5,607.5 1923,803 		"/>
	</g>
	<g>
		<defs>
			<rect id="SVGID_185_" x="1" width="1920" height="1080"/>
		</defs>
		<clipPath id="SVGID_186_">
			<use xlink:href="#SVGID_185_"  style="overflow:visible;"/>
		</clipPath>
		<polyline class="st94" points="1570.5,0 1570.5,129 1733.5,292 1733.5,604.5 1928.5,799.5 		"/>
	</g>
	<g>
		<defs>
			<rect id="SVGID_187_" x="1" width="1920" height="1080"/>
		</defs>
		<clipPath id="SVGID_188_">
			<use xlink:href="#SVGID_187_"  style="overflow:visible;"/>
		</clipPath>
		<polyline class="st95" points="1576.5,0 1576.5,126 1739.5,289 1739.5,601.5 1921.5,783.5 		"/>
	</g>
	<g>
		<defs>
			<rect id="SVGID_189_" x="1" width="1920" height="1080"/>
		</defs>
		<clipPath id="SVGID_190_">
			<use xlink:href="#SVGID_189_"  style="overflow:visible;"/>
		</clipPath>
		<polyline class="st96" points="1582.5,0 1582.5,123 1745.5,286 1745.5,598.5 1921.5,774.5 		"/>
	</g>
	<g>
		<defs>
			<rect id="SVGID_191_" x="1" width="1920" height="1080"/>
		</defs>
		<clipPath id="SVGID_192_">
			<use xlink:href="#SVGID_191_"  style="overflow:visible;"/>
		</clipPath>
		<polyline class="st97" points="1588.5,0 1588.5,120 1751.5,283 1751.5,595.5 1925,769 		"/>
	</g>
	<g>
		<defs>
			<rect id="SVGID_193_" x="1" width="1920" height="1080"/>
		</defs>
		<clipPath id="SVGID_194_">
			<use xlink:href="#SVGID_193_"  style="overflow:visible;"/>
		</clipPath>
		<polyline class="st98" points="1594.5,0 1594.5,117 1757.5,280 1757.5,592.5 1928.5,763.5 		"/>
	</g>
	<g>
		<defs>
			<rect id="SVGID_195_" x="1" width="1920" height="1080"/>
		</defs>
		<clipPath id="SVGID_196_">
			<use xlink:href="#SVGID_195_"  style="overflow:visible;"/>
		</clipPath>
		<polyline class="st99" points="1600.5,0 1600.5,114 1763.5,277 1763.5,589.5 1923,749 		"/>
	</g>
	<g>
		<defs>
			<rect id="SVGID_197_" x="1" width="1920" height="1080"/>
		</defs>
		<clipPath id="SVGID_198_">
			<use xlink:href="#SVGID_197_"  style="overflow:visible;"/>
		</clipPath>
		<polyline class="st100" points="1606.5,0 1606.5,111 1769.5,274 1769.5,586.5 1923.5,740.5 		"/>
	</g>
</g>
</svg>
